<?xml version="1.0" encoding="UTF-8" standalone="no"?>
<!DOCTYPE svg PUBLIC "-//W3C//DTD SVG 1.1//EN"
 "http://www.w3.org/Graphics/SVG/1.1/DTD/svg11.dtd">
<!-- Generated by graphviz version 2.28.0 (20110507.0352)
 -->
<!-- Title: controllers_diagram Pages: 1 -->
<svg width="1410pt" height="1191pt"
 viewBox="0.00 0.00 1409.98 1190.65" xmlns="http://www.w3.org/2000/svg" xmlns:xlink="http://www.w3.org/1999/xlink">
<g id="graph1" class="graph" transform="scale(1 1) rotate(0) translate(4 1186.65)">
<title>controllers_diagram</title>
<polygon fill="white" stroke="white" points="-4,5 -4,-1186.65 1406.98,-1186.65 1406.98,5 -4,5"/>
<!-- _diagram_info -->
<g id="node1" class="node"><title>_diagram_info</title>
<text text-anchor="start" x="1195.98" y="-63.6" font-family="Times,serif" font-size="13.00">Controllers diagram</text>
<text text-anchor="start" x="1195.98" y="-49.6" font-family="Times,serif" font-size="13.00">Date: Oct 19 2012 &#45; 14:14</text>
<text text-anchor="start" x="1195.98" y="-35.6" font-family="Times,serif" font-size="13.00">Migration version: 20120807125400</text>
<text text-anchor="start" x="1195.98" y="-21.6" font-family="Times,serif" font-size="13.00">Generated by RailRoady 1.1.0</text>
<text text-anchor="start" x="1195.98" y="-7.6" font-family="Times,serif" font-size="13.00">http://railroady.prestonlee.com</text>
</g>
<!-- ProjectController -->
<g id="node2" class="node"><title>ProjectController</title>
<ellipse fill="none" stroke="black" cx="142.989" cy="-349.613" rx="71.2405" ry="18"/>
<text text-anchor="middle" x="142.989" y="-345.913" font-family="Times,serif" font-size="14.00">ProjectController</text>
</g>
<!-- PrefixController -->
<g id="node3" class="node"><title>PrefixController</title>
<ellipse fill="none" stroke="black" cx="1114.39" cy="-393.839" rx="68.3664" ry="18"/>
<text text-anchor="middle" x="1114.39" y="-390.139" font-family="Times,serif" font-size="14.00">PrefixController</text>
</g>
<!-- DesignCenterController -->
<g id="node4" class="node"><title>DesignCenterController</title>
<ellipse fill="none" stroke="black" cx="638.673" cy="-18" rx="94.338" ry="18"/>
<text text-anchor="middle" x="638.673" y="-14.3" font-family="Times,serif" font-size="14.00">DesignCenterController</text>
</g>
<!-- EcoTaskReportsController -->
<g id="node5" class="node"><title>EcoTaskReportsController</title>
<ellipse fill="none" stroke="black" cx="377.347" cy="-1113.78" rx="104.461" ry="18"/>
<text text-anchor="middle" x="377.347" y="-1110.08" font-family="Times,serif" font-size="14.00">EcoTaskReportsController</text>
</g>
<!-- SectionController -->
<g id="node6" class="node"><title>SectionController</title>
<ellipse fill="none" stroke="black" cx="1009.51" cy="-485.015" rx="73.1654" ry="18"/>
<text text-anchor="middle" x="1009.51" y="-481.315" font-family="Times,serif" font-size="14.00">SectionController</text>
</g>
<!-- DesignUpdateController -->
<g id="node7" class="node"><title>DesignUpdateController</title>
<ellipse fill="none" stroke="black" cx="413.257" cy="-516.51" rx="96.2631" ry="18"/>
<text text-anchor="middle" x="413.257" y="-512.81" font-family="Times,serif" font-size="14.00">DesignUpdateController</text>
</g>
<!-- DesignReviewResultController -->
<g id="node8" class="node"><title>DesignReviewResultController</title>
<ellipse fill="none" stroke="black" cx="291.586" cy="-188.851" rx="120.334" ry="18"/>
<text text-anchor="middle" x="291.586" y="-185.151" font-family="Times,serif" font-size="14.00">DesignReviewResultController</text>
</g>
<!-- ApplicationController -->
<g id="node9" class="node"><title>ApplicationController</title>
<ellipse fill="none" stroke="black" cx="693.023" cy="-595.315" rx="88.0886" ry="18"/>
<text text-anchor="middle" x="693.023" y="-591.615" font-family="Times,serif" font-size="14.00">ApplicationController</text>
</g>
<!-- ApplicationController&#45;&gt;ProjectController -->
<g id="edge2" class="edge"><title>ApplicationController&#45;&gt;ProjectController</title>
<path fill="none" stroke="black" d="M655.996,-578.97C548.677,-531.596 244.875,-397.484 242.312,-396.316 220.292,-386.279 195.676,-374.707 176.458,-365.592"/>
</g>
<!-- ApplicationController&#45;&gt;PrefixController -->
<g id="edge4" class="edge"><title>ApplicationController&#45;&gt;PrefixController</title>
<path fill="none" stroke="black" d="M727.864,-578.656C807.721,-540.473 1003.1,-447.055 1081.27,-409.677"/>
</g>
<!-- ApplicationController&#45;&gt;DesignCenterController -->
<g id="edge6" class="edge"><title>ApplicationController&#45;&gt;DesignCenterController</title>
<path fill="none" stroke="black" d="M696.583,-576.907C708.255,-512.935 742.165,-294.834 698.146,-123.428 689.574,-90.0466 667.577,-56.1674 652.874,-36.128"/>
</g>
<!-- ApplicationController&#45;&gt;EcoTaskReportsController -->
<g id="edge8" class="edge"><title>ApplicationController&#45;&gt;EcoTaskReportsController</title>
<path fill="none" stroke="black" d="M687.622,-613.479C678.922,-641.088 660.094,-694.634 633.948,-734.685 564.416,-841.196 500.662,-832.461 437.655,-942.958 418.202,-977.073 426.198,-990.81 413.18,-1027.86 404.822,-1051.65 393.344,-1078.35 385.653,-1095.58"/>
</g>
<!-- ApplicationController&#45;&gt;SectionController -->
<g id="edge10" class="edge"><title>ApplicationController&#45;&gt;SectionController</title>
<path fill="none" stroke="black" d="M737.697,-579.746C798.698,-558.486 907.286,-520.642 967.09,-499.8"/>
</g>
<!-- ApplicationController&#45;&gt;DesignUpdateController -->
<g id="edge12" class="edge"><title>ApplicationController&#45;&gt;DesignUpdateController</title>
<path fill="none" stroke="black" d="M641.057,-580.677C591.438,-566.701 517.001,-545.733 466.849,-531.606"/>
</g>
<!-- ApplicationController&#45;&gt;DesignReviewResultController -->
<g id="edge14" class="edge"><title>ApplicationController&#45;&gt;DesignReviewResultController</title>
<path fill="none" stroke="black" d="M672.015,-577.608C629.268,-540.565 531.412,-450.469 474.565,-355.991 457.651,-327.882 469.656,-312.534 449.707,-286.491 443.135,-277.91 438.797,-278.507 429.732,-272.62 393.038,-248.786 349.765,-222.893 321.558,-206.301"/>
</g>
<!-- BoardController -->
<g id="node10" class="node"><title>BoardController</title>
<ellipse fill="none" stroke="black" cx="628.303" cy="-123.389" rx="68.3664" ry="18"/>
<text text-anchor="middle" x="628.303" y="-119.689" font-family="Times,serif" font-size="14.00">BoardController</text>
</g>
<!-- ApplicationController&#45;&gt;BoardController -->
<g id="edge16" class="edge"><title>ApplicationController&#45;&gt;BoardController</title>
<path fill="none" stroke="black" d="M691.808,-577.248C689.006,-537.266 681.457,-438.324 670.147,-356.062 659.078,-275.555 640.1,-180.396 632.069,-141.41"/>
</g>
<!-- PlatformController -->
<g id="node11" class="node"><title>PlatformController</title>
<ellipse fill="none" stroke="black" cx="986.965" cy="-118.925" rx="77.4897" ry="18"/>
<text text-anchor="middle" x="986.965" y="-115.225" font-family="Times,serif" font-size="14.00">PlatformController</text>
</g>
<!-- ApplicationController&#45;&gt;PlatformController -->
<g id="edge18" class="edge"><title>ApplicationController&#45;&gt;PlatformController</title>
<path fill="none" stroke="black" d="M720.885,-578.069C790.065,-533.152 967.305,-404.613 1011.85,-241.195 1021.82,-204.62 1006.53,-160.913 995.856,-136.917"/>
</g>
<!-- RoleController -->
<g id="node12" class="node"><title>RoleController</title>
<ellipse fill="none" stroke="black" cx="768.328" cy="-140.582" rx="63.5411" ry="18"/>
<text text-anchor="middle" x="768.328" y="-136.882" font-family="Times,serif" font-size="14.00">RoleController</text>
</g>
<!-- ApplicationController&#45;&gt;RoleController -->
<g id="edge20" class="edge"><title>ApplicationController&#45;&gt;RoleController</title>
<path fill="none" stroke="black" d="M694.847,-577.012C699.043,-536.03 710.129,-433.827 724.44,-349.035 736.411,-278.106 755.525,-194.628 764.019,-158.612"/>
</g>
<!-- DesignChangesController -->
<g id="node13" class="node"><title>DesignChangesController</title>
<ellipse fill="none" stroke="black" cx="102.02" cy="-617.296" rx="102.061" ry="18"/>
<text text-anchor="middle" x="102.02" y="-613.596" font-family="Times,serif" font-size="14.00">DesignChangesController</text>
</g>
<!-- ApplicationController&#45;&gt;DesignChangesController -->
<g id="edge22" class="edge"><title>ApplicationController&#45;&gt;DesignChangesController</title>
<path fill="none" stroke="black" d="M606.136,-598.547C498.489,-602.55 315.46,-609.357 202.062,-613.575"/>
</g>
<!-- IncomingDirectoryController -->
<g id="node14" class="node"><title>IncomingDirectoryController</title>
<ellipse fill="none" stroke="black" cx="1242.61" cy="-475.511" rx="114.085" ry="18"/>
<text text-anchor="middle" x="1242.61" y="-471.811" font-family="Times,serif" font-size="14.00">IncomingDirectoryController</text>
</g>
<!-- ApplicationController&#45;&gt;IncomingDirectoryController -->
<g id="edge24" class="edge"><title>ApplicationController&#45;&gt;IncomingDirectoryController</title>
<path fill="none" stroke="black" d="M753.41,-582.151C856.86,-559.6 1067.24,-513.738 1175.27,-490.188"/>
</g>
<!-- ReviewStatusController -->
<g id="node15" class="node"><title>ReviewStatusController</title>
<ellipse fill="none" stroke="black" cx="1178.81" cy="-690.001" rx="94.338" ry="18"/>
<text text-anchor="middle" x="1178.81" y="-686.301" font-family="Times,serif" font-size="14.00">ReviewStatusController</text>
</g>
<!-- ApplicationController&#45;&gt;ReviewStatusController -->
<g id="edge26" class="edge"><title>ApplicationController&#45;&gt;ReviewStatusController</title>
<path fill="none" stroke="black" d="M735.595,-611.229C777.368,-626.202 843.177,-648.087 901.943,-660.256 963.366,-672.976 1033.65,-680.443 1088.03,-684.714"/>
</g>
<!-- ChangeDetailsController -->
<g id="node16" class="node"><title>ChangeDetailsController</title>
<ellipse fill="none" stroke="black" cx="762.069" cy="-1104.61" rx="98.1881" ry="18"/>
<text text-anchor="middle" x="762.069" y="-1100.91" font-family="Times,serif" font-size="14.00">ChangeDetailsController</text>
</g>
<!-- ApplicationController&#45;&gt;ChangeDetailsController -->
<g id="edge28" class="edge"><title>ApplicationController&#45;&gt;ChangeDetailsController</title>
<path fill="none" stroke="black" d="M691.134,-613.663C686.108,-667.286 674.554,-828.106 701.632,-957.316 711.893,-1006.28 737.856,-1059.64 752.188,-1086.7"/>
</g>
<!-- DocumentTypeController -->
<g id="node17" class="node"><title>DocumentTypeController</title>
<ellipse fill="none" stroke="black" cx="908.213" cy="-240.999" rx="102.061" ry="18"/>
<text text-anchor="middle" x="908.213" y="-237.299" font-family="Times,serif" font-size="14.00">DocumentTypeController</text>
</g>
<!-- ApplicationController&#45;&gt;DocumentTypeController -->
<g id="edge30" class="edge"><title>ApplicationController&#45;&gt;DocumentTypeController</title>
<path fill="none" stroke="black" d="M711.485,-577.474C749.803,-539.352 838.17,-445.556 883.622,-349.315 897.703,-319.499 903.945,-281.186 906.538,-259.032"/>
</g>
<!-- EcoTasksController -->
<g id="node18" class="node"><title>EcoTasksController</title>
<ellipse fill="none" stroke="black" cx="1099.65" cy="-208.364" rx="81.3646" ry="18"/>
<text text-anchor="middle" x="1099.65" y="-204.664" font-family="Times,serif" font-size="14.00">EcoTasksController</text>
</g>
<!-- ApplicationController&#45;&gt;EcoTasksController -->
<g id="edge32" class="edge"><title>ApplicationController&#45;&gt;EcoTasksController</title>
<path fill="none" stroke="black" d="M711.551,-577.683C779.291,-513.221 1013.09,-290.731 1081.01,-226.099"/>
</g>
<!-- DebugController -->
<g id="node19" class="node"><title>DebugController</title>
<ellipse fill="none" stroke="black" cx="220.92" cy="-952.585" rx="70.2909" ry="18"/>
<text text-anchor="middle" x="220.92" y="-948.885" font-family="Times,serif" font-size="14.00">DebugController</text>
</g>
<!-- ApplicationController&#45;&gt;DebugController -->
<g id="edge34" class="edge"><title>ApplicationController&#45;&gt;DebugController</title>
<path fill="none" stroke="black" d="M646.119,-610.6C555.682,-642.471 356.661,-724.661 249.218,-861.657 232.383,-883.122 225.494,-914.691 222.723,-934.422"/>
</g>
<!-- DesignController -->
<g id="node20" class="node"><title>DesignController</title>
<ellipse fill="none" stroke="black" cx="160.628" cy="-823.314" rx="71.2405" ry="18"/>
<text text-anchor="middle" x="160.628" y="-819.614" font-family="Times,serif" font-size="14.00">DesignController</text>
</g>
<!-- ApplicationController&#45;&gt;DesignController -->
<g id="edge36" class="edge"><title>ApplicationController&#45;&gt;DesignController</title>
<path fill="none" stroke="black" d="M654.734,-611.712C556.026,-653.984 293.889,-766.245 197.156,-807.671"/>
</g>
<!-- OiInstructionController -->
<g id="node21" class="node"><title>OiInstructionController</title>
<ellipse fill="none" stroke="black" cx="344.41" cy="-861.672" rx="93.3873" ry="18"/>
<text text-anchor="middle" x="344.41" y="-857.972" font-family="Times,serif" font-size="14.00">OiInstructionController</text>
</g>
<!-- ApplicationController&#45;&gt;OiInstructionController -->
<g id="edge38" class="edge"><title>ApplicationController&#45;&gt;OiInstructionController</title>
<path fill="none" stroke="black" d="M658.269,-612.011C610.939,-635.627 524.753,-681.809 460.47,-734.352 418.785,-768.424 378.341,-817.527 358.001,-843.68"/>
</g>
<!-- ReviewGroupController -->
<g id="node22" class="node"><title>ReviewGroupController</title>
<ellipse fill="none" stroke="black" cx="572.356" cy="-356.026" rx="96.2874" ry="18"/>
<text text-anchor="middle" x="572.356" y="-352.326" font-family="Times,serif" font-size="14.00">ReviewGroupController</text>
</g>
<!-- ApplicationController&#45;&gt;ReviewGroupController -->
<g id="edge40" class="edge"><title>ApplicationController&#45;&gt;ReviewGroupController</title>
<path fill="none" stroke="black" d="M683.953,-577.33C661.591,-532.984 604.003,-418.784 581.531,-374.22"/>
</g>
<!-- AuditController -->
<g id="node23" class="node"><title>AuditController</title>
<ellipse fill="none" stroke="black" cx="381.163" cy="-286.45" rx="66.4165" ry="18"/>
<text text-anchor="middle" x="381.163" y="-282.75" font-family="Times,serif" font-size="14.00">AuditController</text>
</g>
<!-- ApplicationController&#45;&gt;AuditController -->
<g id="edge42" class="edge"><title>ApplicationController&#45;&gt;AuditController</title>
<path fill="none" stroke="black" d="M674.908,-577.374C619.659,-522.656 453.733,-358.323 398.94,-304.055"/>
</g>
<!-- ReviewTypeController -->
<g id="node24" class="node"><title>ReviewTypeController</title>
<ellipse fill="none" stroke="black" cx="978.99" cy="-986.62" rx="91.4625" ry="18"/>
<text text-anchor="middle" x="978.99" y="-982.92" font-family="Times,serif" font-size="14.00">ReviewTypeController</text>
</g>
<!-- ApplicationController&#45;&gt;ReviewTypeController -->
<g id="edge44" class="edge"><title>ApplicationController&#45;&gt;ReviewTypeController</title>
<path fill="none" stroke="black" d="M716.725,-612.839C759.383,-645.448 849.682,-719.5 903.896,-800.233 941.432,-856.13 965.053,-933.682 974.405,-968.468"/>
</g>
<!-- UserController -->
<g id="node25" class="node"><title>UserController</title>
<ellipse fill="none" stroke="black" cx="1079.67" cy="-1048.94" rx="63.5411" ry="18"/>
<text text-anchor="middle" x="1079.67" y="-1045.24" font-family="Times,serif" font-size="14.00">UserController</text>
</g>
<!-- ApplicationController&#45;&gt;UserController -->
<g id="edge46" class="edge"><title>ApplicationController&#45;&gt;UserController</title>
<path fill="none" stroke="black" d="M713.284,-612.85C785.699,-675.997 1029.66,-892.984 1072.23,-986.642 1078.54,-1000.52 1080.18,-1017.85 1080.36,-1030.71"/>
</g>
<!-- PartNumsController -->
<g id="node26" class="node"><title>PartNumsController</title>
<ellipse fill="none" stroke="black" cx="668.609" cy="-1164.65" rx="82.3139" ry="18"/>
<text text-anchor="middle" x="668.609" y="-1160.95" font-family="Times,serif" font-size="14.00">PartNumsController</text>
</g>
<!-- ApplicationController&#45;&gt;PartNumsController -->
<g id="edge48" class="edge"><title>ApplicationController&#45;&gt;PartNumsController</title>
<path fill="none" stroke="black" d="M690.761,-613.336C682.76,-679.038 656.544,-911.959 661.678,-1104.54 662.056,-1118.72 663.963,-1134.66 665.681,-1146.56"/>
</g>
<!-- BoardDesignEntryController -->
<g id="node27" class="node"><title>BoardDesignEntryController</title>
<ellipse fill="none" stroke="black" cx="854.09" cy="-51.9898" rx="112.16" ry="18"/>
<text text-anchor="middle" x="854.09" y="-48.2898" font-family="Times,serif" font-size="14.00">BoardDesignEntryController</text>
</g>
<!-- ApplicationController&#45;&gt;BoardDesignEntryController -->
<g id="edge50" class="edge"><title>ApplicationController&#45;&gt;BoardDesignEntryController</title>
<path fill="none" stroke="black" d="M693.155,-577.232C693.92,-535.849 698.499,-431.472 724.44,-349.035 755.81,-249.344 797.319,-238.774 833.619,-140.771 842.41,-117.038 848.208,-88.291 851.321,-70.0683"/>
</g>
<!-- ChangeTypesController -->
<g id="node28" class="node"><title>ChangeTypesController</title>
<ellipse fill="none" stroke="black" cx="1167.15" cy="-921.599" rx="94.338" ry="18"/>
<text text-anchor="middle" x="1167.15" y="-917.899" font-family="Times,serif" font-size="14.00">ChangeTypesController</text>
</g>
<!-- ApplicationController&#45;&gt;ChangeTypesController -->
<g id="edge52" class="edge"><title>ApplicationController&#45;&gt;ChangeTypesController</title>
<path fill="none" stroke="black" d="M710.611,-612.974C760.481,-662.812 902.702,-803.297 957.156,-839.56 969.535,-847.804 973.868,-847.738 987.591,-853.471 1033.12,-872.49 1086.02,-892.289 1122.55,-905.609"/>
</g>
<!-- SubsectionController -->
<g id="node29" class="node"><title>SubsectionController</title>
<ellipse fill="none" stroke="black" cx="547.209" cy="-734.518" rx="85.2138" ry="18"/>
<text text-anchor="middle" x="547.209" y="-730.818" font-family="Times,serif" font-size="14.00">SubsectionController</text>
</g>
<!-- ApplicationController&#45;&gt;SubsectionController -->
<g id="edge54" class="edge"><title>ApplicationController&#45;&gt;SubsectionController</title>
<path fill="none" stroke="black" d="M674.555,-612.945C646.661,-639.575 594.064,-689.788 565.987,-716.592"/>
</g>
<!-- ReportController -->
<g id="node30" class="node"><title>ReportController</title>
<ellipse fill="none" stroke="black" cx="500.597" cy="-167.389" rx="70.2668" ry="18"/>
<text text-anchor="middle" x="500.597" y="-163.689" font-family="Times,serif" font-size="14.00">ReportController</text>
</g>
<!-- ApplicationController&#45;&gt;ReportController -->
<g id="edge56" class="edge"><title>ApplicationController&#45;&gt;ReportController</title>
<path fill="none" stroke="black" d="M695.005,-577.257C698.762,-536.036 703.779,-432.666 670.147,-356.062 636.953,-280.455 561.429,-214.389 523.389,-184.446"/>
</g>
<!-- ChangeClassesController -->
<g id="node31" class="node"><title>ChangeClassesController</title>
<ellipse fill="none" stroke="black" cx="1186.7" cy="-307.453" rx="100.137" ry="18"/>
<text text-anchor="middle" x="1186.7" y="-303.753" font-family="Times,serif" font-size="14.00">ChangeClassesController</text>
</g>
<!-- ApplicationController&#45;&gt;ChangeClassesController -->
<g id="edge58" class="edge"><title>ApplicationController&#45;&gt;ChangeClassesController</title>
<path fill="none" stroke="black" d="M722.426,-578.17C810.127,-527.031 1069.23,-375.947 1157.14,-324.689"/>
</g>
<!-- DocumentController -->
<g id="node32" class="node"><title>DocumentController</title>
<ellipse fill="none" stroke="black" cx="787.074" cy="-957.384" rx="83.2649" ry="18"/>
<text text-anchor="middle" x="787.074" y="-953.684" font-family="Times,serif" font-size="14.00">DocumentController</text>
</g>
<!-- ApplicationController&#45;&gt;DocumentController -->
<g id="edge60" class="edge"><title>ApplicationController&#45;&gt;DocumentController</title>
<path fill="none" stroke="black" d="M697.816,-613.768C713.987,-676.022 766.413,-877.848 782.402,-939.398"/>
</g>
<!-- EcoDocumentsController -->
<g id="node33" class="node"><title>EcoDocumentsController</title>
<ellipse fill="none" stroke="black" cx="975.028" cy="-646.536" rx="100.611" ry="18"/>
<text text-anchor="middle" x="975.028" y="-642.836" font-family="Times,serif" font-size="14.00">EcoDocumentsController</text>
</g>
<!-- ApplicationController&#45;&gt;EcoDocumentsController -->
<g id="edge62" class="edge"><title>ApplicationController&#45;&gt;EcoDocumentsController</title>
<path fill="none" stroke="black" d="M759.14,-607.324C802.607,-615.219 859.449,-625.543 903.896,-633.616"/>
</g>
<!-- DesignDirectoryController -->
<g id="node34" class="node"><title>DesignDirectoryController</title>
<ellipse fill="none" stroke="black" cx="414.115" cy="-94.3776" rx="104.937" ry="18"/>
<text text-anchor="middle" x="414.115" y="-90.6776" font-family="Times,serif" font-size="14.00">DesignDirectoryController</text>
</g>
<!-- ApplicationController&#45;&gt;DesignDirectoryController -->
<g id="edge64" class="edge"><title>ApplicationController&#45;&gt;DesignDirectoryController</title>
<path fill="none" stroke="black" d="M670.868,-577.788C626.457,-541.417 526.376,-453.003 474.565,-355.991 451.506,-312.816 425.601,-164.432 417.035,-112.501"/>
</g>
<!-- DivisionController -->
<g id="node35" class="node"><title>DivisionController</title>
<ellipse fill="none" stroke="black" cx="516.598" cy="-943.008" rx="77.0154" ry="18"/>
<text text-anchor="middle" x="516.598" y="-939.308" font-family="Times,serif" font-size="14.00">DivisionController</text>
</g>
<!-- ApplicationController&#45;&gt;DivisionController -->
<g id="edge66" class="edge"><title>ApplicationController&#45;&gt;DivisionController</title>
<path fill="none" stroke="black" d="M686.013,-613.648C675.546,-640.577 654.82,-692.234 633.948,-734.685 598.417,-806.953 549.346,-889.325 527.661,-924.985"/>
</g>
<!-- ReviewManagerController -->
<g id="node36" class="node"><title>ReviewManagerController</title>
<ellipse fill="none" stroke="black" cx="1063.39" cy="-839.738" rx="104.461" ry="18"/>
<text text-anchor="middle" x="1063.39" y="-836.038" font-family="Times,serif" font-size="14.00">ReviewManagerController</text>
</g>
<!-- ApplicationController&#45;&gt;ReviewManagerController -->
<g id="edge68" class="edge"><title>ApplicationController&#45;&gt;ReviewManagerController</title>
<path fill="none" stroke="black" d="M719.362,-612.697C787.45,-657.632 968.726,-777.263 1036.94,-822.281"/>
</g>
<!-- LocationController -->
<g id="node37" class="node"><title>LocationController</title>
<ellipse fill="none" stroke="black" cx="804.031" cy="-349.175" rx="77.4897" ry="18"/>
<text text-anchor="middle" x="804.031" y="-345.475" font-family="Times,serif" font-size="14.00">LocationController</text>
</g>
<!-- ApplicationController&#45;&gt;LocationController -->
<g id="edge70" class="edge"><title>ApplicationController&#45;&gt;LocationController</title>
<path fill="none" stroke="black" d="M701.185,-577.216C721.714,-531.697 775.314,-412.848 795.856,-367.301"/>
</g>
<!-- TrackerController -->
<g id="node38" class="node"><title>TrackerController</title>
<ellipse fill="none" stroke="black" cx="828.206" cy="-800.059" rx="74.1402" ry="18"/>
<text text-anchor="middle" x="828.206" y="-796.359" font-family="Times,serif" font-size="14.00">TrackerController</text>
</g>
<!-- ApplicationController&#45;&gt;TrackerController -->
<g id="edge72" class="edge"><title>ApplicationController&#45;&gt;TrackerController</title>
<path fill="none" stroke="black" d="M705.019,-613.485C730.737,-652.436 790.909,-743.57 816.429,-782.222"/>
</g>
<!-- ChangeItemsController -->
<g id="node39" class="node"><title>ChangeItemsController</title>
<ellipse fill="none" stroke="black" cx="962.598" cy="-1137.64" rx="93.3873" ry="18"/>
<text text-anchor="middle" x="962.598" y="-1133.94" font-family="Times,serif" font-size="14.00">ChangeItemsController</text>
</g>
<!-- ApplicationController&#45;&gt;ChangeItemsController -->
<g id="edge74" class="edge"><title>ApplicationController&#45;&gt;ChangeItemsController</title>
<path fill="none" stroke="black" d="M695.966,-613.372C702.434,-650.062 719.964,-735.316 752.515,-799.885 792.141,-878.488 827.369,-881.885 872.516,-957.453 879.812,-969.665 879.581,-973.779 885.748,-986.598 909.091,-1035.12 938.331,-1091.45 953.109,-1119.63"/>
</g>
<!-- DesignReviewController -->
<g id="node40" class="node"><title>DesignReviewController</title>
<ellipse fill="none" stroke="black" cx="181.29" cy="-676.64" rx="98.1881" ry="18"/>
<text text-anchor="middle" x="181.29" y="-672.94" font-family="Times,serif" font-size="14.00">DesignReviewController</text>
</g>
<!-- ApplicationController&#45;&gt;DesignReviewController -->
<g id="edge76" class="edge"><title>ApplicationController&#45;&gt;DesignReviewController</title>
<path fill="none" stroke="black" d="M623.209,-606.41C527.072,-621.688 354.653,-649.089 256.001,-664.767"/>
</g>
<!-- ChecklistController -->
<g id="node41" class="node"><title>ChecklistController</title>
<ellipse fill="none" stroke="black" cx="161.876" cy="-499.304" rx="79.4147" ry="18"/>
<text text-anchor="middle" x="161.876" y="-495.604" font-family="Times,serif" font-size="14.00">ChecklistController</text>
</g>
<!-- ApplicationController&#45;&gt;ChecklistController -->
<g id="edge78" class="edge"><title>ApplicationController&#45;&gt;ChecklistController</title>
<path fill="none" stroke="black" d="M626.827,-583.349C523.515,-564.675 325.342,-528.852 224.358,-510.598"/>
</g>
<!-- FabHouseController -->
<g id="node42" class="node"><title>FabHouseController</title>
<ellipse fill="none" stroke="black" cx="572.664" cy="-1102.96" rx="82.3139" ry="18"/>
<text text-anchor="middle" x="572.664" y="-1099.26" font-family="Times,serif" font-size="14.00">FabHouseController</text>
</g>
<!-- ApplicationController&#45;&gt;FabHouseController -->
<g id="edge80" class="edge"><title>ApplicationController&#45;&gt;FabHouseController</title>
<path fill="none" stroke="black" d="M688.739,-613.382C670.041,-692.245 595.679,-1005.89 576.959,-1084.84"/>
</g>
<!-- ProductTypeController -->
<g id="node43" class="node"><title>ProductTypeController</title>
<ellipse fill="none" stroke="black" cx="319.29" cy="-1027.75" rx="91.9385" ry="18"/>
<text text-anchor="middle" x="319.29" y="-1024.05" font-family="Times,serif" font-size="14.00">ProductTypeController</text>
</g>
<!-- ApplicationController&#45;&gt;ProductTypeController -->
<g id="edge82" class="edge"><title>ApplicationController&#45;&gt;ProductTypeController</title>
<path fill="none" stroke="black" d="M687.945,-613.698C679.668,-641.593 661.384,-695.506 633.948,-734.685 547.663,-857.902 402.265,-968.717 344.269,-1010.32"/>
</g>
<!-- CheckController -->
<g id="node44" class="node"><title>CheckController</title>
<ellipse fill="none" stroke="black" cx="357.684" cy="-698.434" rx="69.3156" ry="18"/>
<text text-anchor="middle" x="357.684" y="-694.734" font-family="Times,serif" font-size="14.00">CheckController</text>
</g>
<!-- ApplicationController&#45;&gt;CheckController -->
<g id="edge84" class="edge"><title>ApplicationController&#45;&gt;CheckController</title>
<path fill="none" stroke="black" d="M643.902,-610.42C578.957,-630.391 465.426,-665.302 402.64,-684.61"/>
</g>
<!-- DesignCenterManagerController -->
<g id="node45" class="node"><title>DesignCenterManagerController</title>
<ellipse fill="none" stroke="black" cx="1232.48" cy="-788.127" rx="126.133" ry="18"/>
<text text-anchor="middle" x="1232.48" y="-784.427" font-family="Times,serif" font-size="14.00">DesignCenterManagerController</text>
</g>
<!-- ApplicationController&#45;&gt;DesignCenterManagerController -->
<g id="edge86" class="edge"><title>ApplicationController&#45;&gt;DesignCenterManagerController</title>
<path fill="none" stroke="black" d="M737.168,-611.094C837.571,-646.98 1082.29,-734.447 1185.42,-771.308"/>
</g>
<!-- PriorityController -->
<g id="node46" class="node"><title>PriorityController</title>
<ellipse fill="none" stroke="black" cx="1234.71" cy="-590.885" rx="73.1654" ry="18"/>
<text text-anchor="middle" x="1234.71" y="-587.185" font-family="Times,serif" font-size="14.00">PriorityController</text>
</g>
<!-- ApplicationController&#45;&gt;PriorityController -->
<g id="edge88" class="edge"><title>ApplicationController&#45;&gt;PriorityController</title>
<path fill="none" stroke="black" d="M781.26,-594.593C887.086,-593.728 1062.53,-592.293 1161.3,-591.485"/>
</g>
<!-- AdminController -->
<g id="node47" class="node"><title>AdminController</title>
<ellipse fill="none" stroke="black" cx="294" cy="-382.457" rx="71.2405" ry="18"/>
<text text-anchor="middle" x="294" y="-378.757" font-family="Times,serif" font-size="14.00">AdminController</text>
</g>
<!-- ApplicationController&#45;&gt;AdminController -->
<g id="edge90" class="edge"><title>ApplicationController&#45;&gt;AdminController</title>
<path fill="none" stroke="black" d="M661.378,-578.435C586.356,-538.414 398.461,-438.181 324.549,-398.754"/>
</g>
</g>
</svg>
