<?xml version="1.0" encoding="UTF-8" standalone="no"?>
<!DOCTYPE svg PUBLIC "-//W3C//DTD SVG 1.1//EN"
 "http://www.w3.org/Graphics/SVG/1.1/DTD/svg11.dtd">
<!-- Generated by graphviz version 2.28.0 (20110507.0352)
 -->
<!-- Title: models_diagram Pages: 1 -->
<svg width="3488pt" height="518pt"
 viewBox="0.00 0.00 3488.00 518.00" xmlns="http://www.w3.org/2000/svg" xmlns:xlink="http://www.w3.org/1999/xlink">
<g id="graph1" class="graph" transform="scale(1 1) rotate(0) translate(4 514)">
<title>models_diagram</title>
<polygon fill="white" stroke="white" points="-4,5 -4,-514 3485,-514 3485,5 -4,5"/>
<!-- _diagram_info -->
<g id="node1" class="node"><title>_diagram_info</title>
<text text-anchor="start" x="373" y="-495.6" font-family="Times,serif" font-size="13.00">Models diagram</text>
<text text-anchor="start" x="373" y="-481.6" font-family="Times,serif" font-size="13.00">Date: Oct 19 2012 &#45; 14:13</text>
<text text-anchor="start" x="373" y="-467.6" font-family="Times,serif" font-size="13.00">Migration version: 20120807125400</text>
<text text-anchor="start" x="373" y="-453.6" font-family="Times,serif" font-size="13.00">Generated by RailRoady 1.1.0</text>
<text text-anchor="start" x="373" y="-439.6" font-family="Times,serif" font-size="13.00">http://railroady.prestonlee.com</text>
</g>
<!-- FtpNotification -->
<g id="node2" class="node"><title>FtpNotification</title>
<ellipse fill="none" stroke="black" cx="64" cy="-162" rx="64.4914" ry="18"/>
<text text-anchor="middle" x="64" y="-158.3" font-family="Times,serif" font-size="14.00">FtpNotification</text>
</g>
<!-- Location -->
<g id="node3" class="node"><title>Location</title>
<ellipse fill="none" stroke="black" cx="1806" cy="-471" rx="42.3701" ry="18"/>
<text text-anchor="middle" x="1806" y="-467.3" font-family="Times,serif" font-size="14.00">Location</text>
</g>
<!-- User -->
<g id="node30" class="node"><title>User</title>
<ellipse fill="none" stroke="black" cx="1806" cy="-378" rx="26.949" ry="18"/>
<text text-anchor="middle" x="1806" y="-374.3" font-family="Times,serif" font-size="14.00">User</text>
</g>
<!-- Location&#45;&gt;User -->
<g id="edge2" class="edge"><title>Location&#45;&gt;User</title>
<path fill="none" stroke="#a73f8d" d="M1806,-444.729C1806,-432.725 1806,-418.362 1806,-406.129"/>
<ellipse fill="none" stroke="#a73f8d" cx="1806" cy="-448.884" rx="4" ry="4"/>
<polygon fill="#a73f8d" stroke="#a73f8d" points="1806,-406.04 1810.5,-396.04 1806,-401.04 1806,-396.04 1806,-396.04 1806,-396.04 1806,-401.04 1801.5,-396.04 1806,-406.04 1806,-406.04"/>
</g>
<!-- PartNumber -->
<g id="node4" class="node"><title>PartNumber</title>
<ellipse fill="none" stroke="black" cx="1247" cy="-306" rx="53.4184" ry="18"/>
<text text-anchor="middle" x="1247" y="-302.3" font-family="Times,serif" font-size="14.00">PartNumber</text>
</g>
<!-- BoardDesignEntry -->
<g id="node40" class="node"><title>BoardDesignEntry</title>
<ellipse fill="none" stroke="black" cx="1025" cy="-162" rx="76.5394" ry="18"/>
<text text-anchor="middle" x="1025" y="-158.3" font-family="Times,serif" font-size="14.00">BoardDesignEntry</text>
</g>
<!-- PartNumber&#45;&gt;BoardDesignEntry -->
<g id="edge4" class="edge"><title>PartNumber&#45;&gt;BoardDesignEntry</title>
<path fill="none" stroke="#19ad58" d="M1234.18,-281.195C1222.3,-261.206 1202.88,-233.224 1179,-216 1152.69,-197.024 1119.04,-184.412 1089.91,-176.271"/>
<ellipse fill="none" stroke="#19ad58" cx="1236.21" cy="-284.701" rx="4.00002" ry="4.00002"/>
<ellipse fill="#19ad58" stroke="#19ad58" cx="1085.68" cy="-175.133" rx="4.00001" ry="4.00001"/>
</g>
<!-- Design -->
<g id="node62" class="node"><title>Design</title>
<ellipse fill="none" stroke="black" cx="1267" cy="-234" rx="35.6194" ry="18"/>
<text text-anchor="middle" x="1267" y="-230.3" font-family="Times,serif" font-size="14.00">Design</text>
</g>
<!-- PartNumber&#45;&gt;Design -->
<g id="edge6" class="edge"><title>PartNumber&#45;&gt;Design</title>
<path fill="none" stroke="#14a43d" d="M1254.07,-280.267C1255.93,-273.762 1257.93,-266.737 1259.8,-260.206"/>
<ellipse fill="none" stroke="#14a43d" cx="1252.94" cy="-284.209" rx="4.00001" ry="4.00001"/>
<ellipse fill="#14a43d" stroke="#14a43d" cx="1260.97" cy="-256.121" rx="4.00001" ry="4.00001"/>
</g>
<!-- IncomingDirectory -->
<g id="node5" class="node"><title>IncomingDirectory</title>
<ellipse fill="none" stroke="black" cx="825" cy="-234" rx="78.4642" ry="18"/>
<text text-anchor="middle" x="825" y="-230.3" font-family="Times,serif" font-size="14.00">IncomingDirectory</text>
</g>
<!-- IncomingDirectory&#45;&gt;BoardDesignEntry -->
<g id="edge8" class="edge"><title>IncomingDirectory&#45;&gt;BoardDesignEntry</title>
<path fill="none" stroke="#8b408d" d="M874.36,-215.724C904.878,-205.043 943.944,-191.37 974.645,-180.624"/>
<ellipse fill="none" stroke="#8b408d" cx="870.216" cy="-217.175" rx="4.00001" ry="4.00001"/>
<polygon fill="#8b408d" stroke="#8b408d" points="974.859,-180.55 985.784,-181.493 979.578,-178.898 984.297,-177.246 984.297,-177.246 984.297,-177.246 979.578,-178.898 982.811,-172.999 974.859,-180.55 974.859,-180.55"/>
</g>
<!-- OiCategory -->
<g id="node6" class="node"><title>OiCategory</title>
<ellipse fill="none" stroke="black" cx="2045" cy="-306" rx="51.4931" ry="18"/>
<text text-anchor="middle" x="2045" y="-302.3" font-family="Times,serif" font-size="14.00">OiCategory</text>
</g>
<!-- OiCategorySection -->
<g id="node11" class="node"><title>OiCategorySection</title>
<ellipse fill="none" stroke="black" cx="2045" cy="-234" rx="77.4897" ry="18"/>
<text text-anchor="middle" x="2045" y="-230.3" font-family="Times,serif" font-size="14.00">OiCategorySection</text>
</g>
<!-- OiCategory&#45;&gt;OiCategorySection -->
<g id="edge10" class="edge"><title>OiCategory&#45;&gt;OiCategorySection</title>
<path fill="none" stroke="#6a6b98" d="M2045,-279.64C2045,-274.063 2045,-268.132 2045,-262.476"/>
<ellipse fill="none" stroke="#6a6b98" cx="2045" cy="-283.697" rx="4" ry="4"/>
<polygon fill="#6a6b98" stroke="#6a6b98" points="2045,-262.104 2049.5,-252.104 2045,-257.104 2045,-252.104 2045,-252.104 2045,-252.104 2045,-257.104 2040.5,-252.104 2045,-262.104 2045,-262.104"/>
</g>
<!-- FabHouse -->
<g id="node7" class="node"><title>FabHouse</title>
<ellipse fill="none" stroke="black" cx="498" cy="-378" rx="46.2191" ry="18"/>
<text text-anchor="middle" x="498" y="-374.3" font-family="Times,serif" font-size="14.00">FabHouse</text>
</g>
<!-- FabHouse&#45;&gt;FtpNotification -->
<g id="edge12" class="edge"><title>FabHouse&#45;&gt;FtpNotification</title>
<path fill="none" stroke="#7a1116" d="M455.305,-363.685C359.503,-333.695 134.686,-262.636 121,-252 99.9587,-235.647 84.4461,-209.204 74.9613,-189.383"/>
<ellipse fill="none" stroke="#7a1116" cx="459.254" cy="-364.921" rx="4.00001" ry="4.00001"/>
<polygon fill="#7a1116" stroke="#7a1116" points="74.9477,-189.353 74.8845,-178.387 72.8696,-184.805 70.7915,-180.257 70.7915,-180.257 70.7915,-180.257 72.8696,-184.805 66.6986,-182.128 74.9477,-189.353 74.9477,-189.353"/>
</g>
<!-- Board -->
<g id="node61" class="node"><title>Board</title>
<ellipse fill="none" stroke="black" cx="458" cy="-306" rx="32.2457" ry="18"/>
<text text-anchor="middle" x="458" y="-302.3" font-family="Times,serif" font-size="14.00">Board</text>
</g>
<!-- FabHouse&#45;&gt;Board -->
<g id="edge14" class="edge"><title>FabHouse&#45;&gt;Board</title>
<path fill="none" stroke="#7164e6" d="M483.231,-351.154C479.736,-345.038 476.012,-338.521 472.528,-332.424"/>
<polygon fill="#7164e6" stroke="#7164e6" points="483.356,-351.373 484.41,-362.288 485.836,-355.714 488.317,-360.055 488.317,-360.055 488.317,-360.055 485.836,-355.714 492.224,-357.822 483.356,-351.373 483.356,-351.373"/>
<polygon fill="#7164e6" stroke="#7164e6" points="472.28,-331.989 471.225,-321.074 469.799,-327.648 467.318,-323.307 467.318,-323.307 467.318,-323.307 469.799,-327.648 463.411,-325.54 472.28,-331.989 472.28,-331.989"/>
</g>
<!-- FabHouse&#45;&gt;Design -->
<g id="edge16" class="edge"><title>FabHouse&#45;&gt;Design</title>
<path fill="none" stroke="#47e4e9" d="M551.506,-370.76C583.288,-367.219 624.403,-362.923 661,-360 732.882,-354.258 1259.44,-376.385 1309,-324 1326.93,-305.044 1308.52,-277.029 1290.75,-257.511"/>
<polygon fill="#47e4e9" stroke="#47e4e9" points="551.47,-370.764 541.03,-367.409 546.502,-371.323 541.533,-371.881 541.533,-371.881 541.533,-371.881 546.502,-371.323 542.035,-376.353 551.47,-370.764 551.47,-370.764"/>
<polygon fill="#47e4e9" stroke="#47e4e9" points="1290.7,-257.459 1287.04,-247.12 1287.24,-253.844 1283.79,-250.229 1283.79,-250.229 1283.79,-250.229 1287.24,-253.844 1280.53,-253.337 1290.7,-257.459 1290.7,-257.459"/>
</g>
<!-- Prefix -->
<g id="node8" class="node"><title>Prefix</title>
<ellipse fill="none" stroke="black" cx="912" cy="-378" rx="32.2457" ry="18"/>
<text text-anchor="middle" x="912" y="-374.3" font-family="Times,serif" font-size="14.00">Prefix</text>
</g>
<!-- Prefix&#45;&gt;BoardDesignEntry -->
<g id="edge20" class="edge"><title>Prefix&#45;&gt;BoardDesignEntry</title>
<path fill="none" stroke="#12bbab" d="M951.172,-371.733C1001.53,-364.066 1084.7,-348.068 1103,-324 1132.05,-285.79 1125.46,-258.42 1103,-216 1095.72,-202.246 1083.09,-191.398 1070.09,-183.195"/>
<ellipse fill="none" stroke="#12bbab" cx="947.039" cy="-372.348" rx="4.00001" ry="4.00001"/>
<polygon fill="#12bbab" stroke="#12bbab" points="1069.72,-182.981 1063.36,-174.05 1065.4,-180.458 1061.09,-177.935 1061.09,-177.935 1061.09,-177.935 1065.4,-180.458 1058.82,-181.82 1069.72,-182.981 1069.72,-182.981"/>
</g>
<!-- Prefix&#45;&gt;Board -->
<g id="edge18" class="edge"><title>Prefix&#45;&gt;Board</title>
<path fill="none" stroke="#2a399f" d="M872.789,-372.416C777.576,-361.211 539.38,-332.718 504,-324 500.311,-323.091 496.51,-321.982 492.749,-320.771"/>
<ellipse fill="none" stroke="#2a399f" cx="876.768" cy="-372.883" rx="4.00001" ry="4.00001"/>
<polygon fill="#2a399f" stroke="#2a399f" points="492.438,-320.664 484.46,-313.141 487.713,-319.028 482.988,-317.393 482.988,-317.393 482.988,-317.393 487.713,-319.028 481.516,-321.646 492.438,-320.664 492.438,-320.664"/>
</g>
<!-- OiAssignmentComment -->
<g id="node9" class="node"><title>OiAssignmentComment</title>
<ellipse fill="none" stroke="black" cx="2176" cy="-18" rx="97.237" ry="18"/>
<text text-anchor="middle" x="2176" y="-14.3" font-family="Times,serif" font-size="14.00">OiAssignmentComment</text>
</g>
<!-- OiAssignment -->
<g id="node10" class="node"><title>OiAssignment</title>
<ellipse fill="none" stroke="black" cx="2117" cy="-90" rx="61.6163" ry="18"/>
<text text-anchor="middle" x="2117" y="-86.3" font-family="Times,serif" font-size="14.00">OiAssignment</text>
</g>
<!-- OiAssignment&#45;&gt;OiAssignmentComment -->
<g id="edge22" class="edge"><title>OiAssignment&#45;&gt;OiAssignmentComment</title>
<path fill="none" stroke="#f68fb9" d="M2136.22,-66.1935C2142.19,-59.1192 2148.79,-51.2853 2154.87,-44.0661"/>
<ellipse fill="none" stroke="#f68fb9" cx="2133.56" cy="-69.3525" rx="4.00002" ry="4.00002"/>
<polygon fill="#f68fb9" stroke="#f68fb9" points="2155.26,-43.6025 2165.15,-38.8563 2158.49,-39.7794 2161.71,-35.9562 2161.71,-35.9562 2161.71,-35.9562 2158.49,-39.7794 2158.27,-33.0561 2155.26,-43.6025 2155.26,-43.6025"/>
</g>
<!-- OiAssignmentReport -->
<g id="node59" class="node"><title>OiAssignmentReport</title>
<ellipse fill="none" stroke="black" cx="1967" cy="-18" rx="85.19" ry="18"/>
<text text-anchor="middle" x="1967" y="-14.3" font-family="Times,serif" font-size="14.00">OiAssignmentReport</text>
</g>
<!-- OiAssignment&#45;&gt;OiAssignmentReport -->
<g id="edge24" class="edge"><title>OiAssignment&#45;&gt;OiAssignmentReport</title>
<path fill="none" stroke="#c7365c" d="M2078.31,-70.9424C2056.75,-60.885 2029.93,-48.3676 2008.02,-38.141"/>
<ellipse fill="none" stroke="#c7365c" cx="2081.93" cy="-72.6341" rx="4.00002" ry="4.00002"/>
<ellipse fill="#c7365c" stroke="#c7365c" cx="2004.11" cy="-36.3186" rx="4.00002" ry="4.00002"/>
</g>
<!-- OiInstruction -->
<g id="node16" class="node"><title>OiInstruction</title>
<ellipse fill="none" stroke="black" cx="2023" cy="-162" rx="57.2688" ry="18"/>
<text text-anchor="middle" x="2023" y="-158.3" font-family="Times,serif" font-size="14.00">OiInstruction</text>
</g>
<!-- OiCategorySection&#45;&gt;OiInstruction -->
<g id="edge26" class="edge"><title>OiCategorySection&#45;&gt;OiInstruction</title>
<path fill="none" stroke="#a6ea09" d="M2037.12,-207.92C2035.26,-202.01 2033.27,-195.689 2031.39,-189.71"/>
<ellipse fill="none" stroke="#a6ea09" cx="2038.36" cy="-211.881" rx="4.00001" ry="4.00001"/>
<polygon fill="#a6ea09" stroke="#a6ea09" points="2031.37,-189.644 2032.67,-178.755 2029.87,-184.874 2028.38,-180.104 2028.38,-180.104 2028.38,-180.104 2029.87,-184.874 2024.08,-181.454 2031.37,-189.644 2031.37,-189.644"/>
</g>
<!-- EcoComment -->
<g id="node12" class="node"><title>EcoComment</title>
<ellipse fill="none" stroke="black" cx="2239" cy="-234" rx="59.1941" ry="18"/>
<text text-anchor="middle" x="2239" y="-230.3" font-family="Times,serif" font-size="14.00">EcoComment</text>
</g>
<!-- AuditTeammate -->
<g id="node13" class="node"><title>AuditTeammate</title>
<ellipse fill="none" stroke="black" cx="493" cy="-90" rx="68.3417" ry="18"/>
<text text-anchor="middle" x="493" y="-86.3" font-family="Times,serif" font-size="14.00">AuditTeammate</text>
</g>
<!-- CcListHistory -->
<g id="node14" class="node"><title>CcListHistory</title>
<ellipse fill="none" stroke="black" cx="2812" cy="-471" rx="60.1672" ry="18"/>
<text text-anchor="middle" x="2812" y="-467.3" font-family="Times,serif" font-size="14.00">CcListHistory</text>
</g>
<!-- DesignCheck -->
<g id="node15" class="node"><title>DesignCheck</title>
<ellipse fill="none" stroke="black" cx="638" cy="-90" rx="57.2688" ry="18"/>
<text text-anchor="middle" x="638" y="-86.3" font-family="Times,serif" font-size="14.00">DesignCheck</text>
</g>
<!-- AuditComment -->
<g id="node48" class="node"><title>AuditComment</title>
<ellipse fill="none" stroke="black" cx="1217" cy="-18" rx="65.9423" ry="18"/>
<text text-anchor="middle" x="1217" y="-14.3" font-family="Times,serif" font-size="14.00">AuditComment</text>
</g>
<!-- DesignCheck&#45;&gt;AuditComment -->
<g id="edge28" class="edge"><title>DesignCheck&#45;&gt;AuditComment</title>
<path fill="none" stroke="#714124" d="M687.428,-75.4194C692.993,-74.144 698.601,-72.9687 704,-72 858.644,-44.2552 1042.31,-29.6442 1142.56,-23.1975"/>
<ellipse fill="none" stroke="#714124" cx="683.228" cy="-76.4201" rx="4.00001" ry="4.00001"/>
<polygon fill="#714124" stroke="#714124" points="1142.61,-23.1945 1152.87,-27.053 1147.6,-22.8783 1152.59,-22.562 1152.59,-22.562 1152.59,-22.562 1147.6,-22.8783 1152.3,-18.071 1142.61,-23.1945 1142.61,-23.1945"/>
</g>
<!-- OiInstruction&#45;&gt;OiAssignment -->
<g id="edge30" class="edge"><title>OiInstruction&#45;&gt;OiAssignment</title>
<path fill="none" stroke="#eb448e" d="M2051.06,-140.108C2062.49,-131.592 2075.72,-121.737 2087.32,-113.1"/>
<ellipse fill="none" stroke="#eb448e" cx="2047.54" cy="-142.727" rx="4.00002" ry="4.00002"/>
<polygon fill="#eb448e" stroke="#eb448e" points="2087.41,-113.036 2098.12,-110.673 2091.42,-110.05 2095.43,-107.064 2095.43,-107.064 2095.43,-107.064 2091.42,-110.05 2092.74,-103.454 2087.41,-113.036 2087.41,-113.036"/>
</g>
<!-- ChangeDetail -->
<g id="node17" class="node"><title>ChangeDetail</title>
<ellipse fill="none" stroke="black" cx="2556" cy="-234" rx="59.2173" ry="18"/>
<text text-anchor="middle" x="2556" y="-230.3" font-family="Times,serif" font-size="14.00">ChangeDetail</text>
</g>
<!-- DesignChange -->
<g id="node27" class="node"><title>DesignChange</title>
<ellipse fill="none" stroke="black" cx="2643" cy="-162" rx="62.0922" ry="18"/>
<text text-anchor="middle" x="2643" y="-158.3" font-family="Times,serif" font-size="14.00">DesignChange</text>
</g>
<!-- ChangeDetail&#45;&gt;DesignChange -->
<g id="edge32" class="edge"><title>ChangeDetail&#45;&gt;DesignChange</title>
<path fill="none" stroke="#9ca395" d="M2582.71,-211.508C2592.94,-203.279 2604.63,-193.874 2614.98,-185.549"/>
<ellipse fill="none" stroke="#9ca395" cx="2579.29" cy="-214.257" rx="4.00002" ry="4.00002"/>
<polygon fill="#9ca395" stroke="#9ca395" points="2615.14,-185.416 2625.75,-182.653 2619.04,-182.282 2622.93,-179.147 2622.93,-179.147 2622.93,-179.147 2619.04,-182.282 2620.11,-175.641 2615.14,-185.416 2615.14,-185.416"/>
</g>
<!-- EcoDocument -->
<g id="node18" class="node"><title>EcoDocument</title>
<ellipse fill="none" stroke="black" cx="2379" cy="-234" rx="61.6163" ry="18"/>
<text text-anchor="middle" x="2379" y="-230.3" font-family="Times,serif" font-size="14.00">EcoDocument</text>
</g>
<!-- Division -->
<g id="node19" class="node"><title>Division</title>
<ellipse fill="none" stroke="black" cx="638" cy="-471" rx="40.4202" ry="18"/>
<text text-anchor="middle" x="638" y="-467.3" font-family="Times,serif" font-size="14.00">Division</text>
</g>
<!-- Division&#45;&gt;FtpNotification -->
<g id="edge34" class="edge"><title>Division&#45;&gt;FtpNotification</title>
<path fill="none" stroke="#b3fc14" d="M615.411,-448.813C607.092,-442.252 597.197,-435.764 587,-432 530.9,-411.29 90.8467,-439.677 50,-396 -2.84683,-339.492 30.9173,-237.677 51.4996,-189.562"/>
<ellipse fill="none" stroke="#b3fc14" cx="618.922" cy="-451.727" rx="4.00002" ry="4.00002"/>
<polygon fill="#b3fc14" stroke="#b3fc14" points="51.6178,-189.295 59.7725,-181.963 53.6367,-184.72 55.6557,-180.146 55.6557,-180.146 55.6557,-180.146 53.6367,-184.72 51.5388,-178.329 51.6178,-189.295 51.6178,-189.295"/>
</g>
<!-- Division&#45;&gt;User -->
<g id="edge36" class="edge"><title>Division&#45;&gt;User</title>
<path fill="none" stroke="#f5d436" d="M685.664,-466.286C878.34,-451.275 1597.48,-395.246 1769.07,-381.877"/>
<ellipse fill="none" stroke="#f5d436" cx="681.519" cy="-466.609" rx="4" ry="4"/>
<polygon fill="#f5d436" stroke="#f5d436" points="1769.15,-381.871 1779.47,-385.581 1774.13,-381.483 1779.12,-381.095 1779.12,-381.095 1779.12,-381.095 1774.13,-381.483 1778.77,-376.608 1769.15,-381.871 1769.15,-381.871"/>
</g>
<!-- DesignCenter -->
<g id="node20" class="node"><title>DesignCenter</title>
<ellipse fill="none" stroke="black" cx="1471" cy="-471" rx="59.2173" ry="18"/>
<text text-anchor="middle" x="1471" y="-467.3" font-family="Times,serif" font-size="14.00">DesignCenter</text>
</g>
<!-- DesignCenter&#45;&gt;FtpNotification -->
<g id="edge42" class="edge"><title>DesignCenter&#45;&gt;FtpNotification</title>
<path fill="none" stroke="#f329e3" d="M1404.51,-467.257C1179.33,-457.738 453.84,-425.121 353,-396 223.844,-358.702 169.822,-357.892 87,-252 73.2102,-234.369 67.6267,-209.343 65.3967,-190.317"/>
<ellipse fill="none" stroke="#f329e3" cx="1408.63" cy="-467.431" rx="4" ry="4"/>
<polygon fill="#f329e3" stroke="#f329e3" points="65.38,-190.136 68.9338,-179.762 64.9166,-185.158 64.4532,-180.18 64.4532,-180.18 64.4532,-180.18 64.9166,-185.158 59.9725,-180.597 65.38,-190.136 65.38,-190.136"/>
</g>
<!-- DesignCenter&#45;&gt;User -->
<g id="edge44" class="edge"><title>DesignCenter&#45;&gt;User</title>
<path fill="none" stroke="#800ab2" d="M1521.59,-456.259C1590.49,-437.54 1712.07,-404.515 1771.43,-388.39"/>
<ellipse fill="none" stroke="#800ab2" cx="1517.29" cy="-457.426" rx="4.00001" ry="4.00001"/>
<polygon fill="#800ab2" stroke="#800ab2" points="1771.44,-388.388 1782.27,-390.109 1776.26,-387.077 1781.09,-385.767 1781.09,-385.767 1781.09,-385.767 1776.26,-387.077 1779.91,-381.424 1771.44,-388.388 1771.44,-388.388"/>
</g>
<!-- DesignCenter&#45;&gt;Design -->
<g id="edge38" class="edge"><title>DesignCenter&#45;&gt;Design</title>
<path fill="none" stroke="#734e30" d="M1454.25,-446.508C1428.37,-410.826 1376.4,-341.469 1326,-288 1315.11,-276.441 1302.05,-264.538 1290.99,-254.947"/>
<ellipse fill="none" stroke="#734e30" cx="1456.72" cy="-449.938" rx="4.00002" ry="4.00002"/>
<ellipse fill="#734e30" stroke="#734e30" cx="1287.78" cy="-252.192" rx="4.00002" ry="4.00002"/>
</g>
<!-- DesignReview -->
<g id="node63" class="node"><title>DesignReview</title>
<ellipse fill="none" stroke="black" cx="1537" cy="-162" rx="62.0922" ry="18"/>
<text text-anchor="middle" x="1537" y="-158.3" font-family="Times,serif" font-size="14.00">DesignReview</text>
</g>
<!-- DesignCenter&#45;&gt;DesignReview -->
<g id="edge40" class="edge"><title>DesignCenter&#45;&gt;DesignReview</title>
<path fill="none" stroke="#a1d4e3" d="M1489.54,-446.823C1510.19,-419.383 1542.34,-371.402 1555,-324 1567.31,-277.904 1555.4,-222.202 1545.97,-189.867"/>
<ellipse fill="none" stroke="#a1d4e3" cx="1486.98" cy="-450.166" rx="4.00002" ry="4.00002"/>
<polygon fill="#a1d4e3" stroke="#a1d4e3" points="1545.95,-189.795 1547.33,-178.916 1544.48,-185.013 1543.02,-180.231 1543.02,-180.231 1543.02,-180.231 1544.48,-185.013 1538.72,-181.546 1545.95,-189.795 1545.95,-189.795"/>
</g>
<!-- DbCheck -->
<g id="node21" class="node"><title>DbCheck</title>
<polygon fill="none" stroke="black" points="2958,-489 2890,-489 2890,-453 2958,-453 2958,-489"/>
<text text-anchor="middle" x="2924" y="-467.3" font-family="Times,serif" font-size="14.00">DbCheck</text>
</g>
<!-- ReviewGroup -->
<g id="node22" class="node"><title>ReviewGroup</title>
<ellipse fill="none" stroke="black" cx="3036" cy="-471" rx="59.1941" ry="18"/>
<text text-anchor="middle" x="3036" y="-467.3" font-family="Times,serif" font-size="14.00">ReviewGroup</text>
</g>
<!-- Section -->
<g id="node23" class="node"><title>Section</title>
<ellipse fill="none" stroke="black" cx="400" cy="-162" rx="37.0701" ry="18"/>
<text text-anchor="middle" x="400" y="-158.3" font-family="Times,serif" font-size="14.00">Section</text>
</g>
<!-- Section&#45;&gt;AuditTeammate -->
<g id="edge46" class="edge"><title>Section&#45;&gt;AuditTeammate</title>
<path fill="none" stroke="#3c8721" d="M426.013,-141.42C437.659,-132.654 451.448,-122.276 463.479,-113.22"/>
<ellipse fill="none" stroke="#3c8721" cx="422.466" cy="-144.09" rx="4.00002" ry="4.00002"/>
<polygon fill="#3c8721" stroke="#3c8721" points="463.49,-113.212 474.186,-110.794 467.485,-110.205 471.48,-107.198 471.48,-107.198 471.48,-107.198 467.485,-110.205 468.773,-103.603 463.49,-113.212 463.49,-113.212"/>
</g>
<!-- Subsection -->
<g id="node44" class="node"><title>Subsection</title>
<ellipse fill="none" stroke="black" cx="357" cy="-90" rx="49.0941" ry="18"/>
<text text-anchor="middle" x="357" y="-86.3" font-family="Times,serif" font-size="14.00">Subsection</text>
</g>
<!-- Section&#45;&gt;Subsection -->
<g id="edge48" class="edge"><title>Section&#45;&gt;Subsection</title>
<path fill="none" stroke="#1647d7" d="M385.47,-137.346C381.399,-130.719 376.954,-123.483 372.812,-116.74"/>
<ellipse fill="none" stroke="#1647d7" cx="387.716" cy="-141.003" rx="4.00002" ry="4.00002"/>
<polygon fill="#1647d7" stroke="#1647d7" points="372.65,-116.477 371.25,-105.601 370.033,-112.217 367.416,-107.956 367.416,-107.956 367.416,-107.956 370.033,-112.217 363.582,-110.312 372.65,-116.477 372.65,-116.477"/>
</g>
<!-- DesignReviewComment -->
<g id="node24" class="node"><title>DesignReviewComment</title>
<ellipse fill="none" stroke="black" cx="1769" cy="-90" rx="98.212" ry="18"/>
<text text-anchor="middle" x="1769" y="-86.3" font-family="Times,serif" font-size="14.00">DesignReviewComment</text>
</g>
<!-- ChangeType -->
<g id="node25" class="node"><title>ChangeType</title>
<ellipse fill="none" stroke="black" cx="2635" cy="-378" rx="55.3436" ry="18"/>
<text text-anchor="middle" x="2635" y="-374.3" font-family="Times,serif" font-size="14.00">ChangeType</text>
</g>
<!-- ChangeItem -->
<g id="node26" class="node"><title>ChangeItem</title>
<ellipse fill="none" stroke="black" cx="2599" cy="-306" rx="53.4184" ry="18"/>
<text text-anchor="middle" x="2599" y="-302.3" font-family="Times,serif" font-size="14.00">ChangeItem</text>
</g>
<!-- ChangeType&#45;&gt;ChangeItem -->
<g id="edge50" class="edge"><title>ChangeType&#45;&gt;ChangeItem</title>
<path fill="none" stroke="#8c3146" d="M2622.51,-352.714C2619.21,-346.302 2615.64,-339.358 2612.3,-332.865"/>
<ellipse fill="none" stroke="#8c3146" cx="2624.46" cy="-356.498" rx="4.00002" ry="4.00002"/>
<polygon fill="#8c3146" stroke="#8c3146" points="2612.21,-332.682 2611.64,-321.731 2609.92,-328.235 2607.63,-323.789 2607.63,-323.789 2607.63,-323.789 2609.92,-328.235 2603.63,-325.847 2612.21,-332.682 2612.21,-332.682"/>
</g>
<!-- ChangeType&#45;&gt;DesignChange -->
<g id="edge52" class="edge"><title>ChangeType&#45;&gt;DesignChange</title>
<path fill="none" stroke="#f83d71" d="M2649.62,-353.065C2654.21,-344.255 2658.68,-333.984 2661,-324 2671.74,-277.724 2660.47,-222.426 2651.56,-190.156"/>
<ellipse fill="none" stroke="#f83d71" cx="2647.7" cy="-356.575" rx="4.00002" ry="4.00002"/>
<polygon fill="#f83d71" stroke="#f83d71" points="2651.44,-189.748 2652.99,-178.891 2650.05,-184.945 2648.67,-180.142 2648.67,-180.142 2648.67,-180.142 2650.05,-184.945 2644.34,-181.392 2651.44,-189.748 2651.44,-189.748"/>
</g>
<!-- ChangeItem&#45;&gt;ChangeDetail -->
<g id="edge54" class="edge"><title>ChangeItem&#45;&gt;ChangeDetail</title>
<path fill="none" stroke="#16eafd" d="M2584.26,-280.998C2580.19,-274.387 2575.78,-267.194 2571.67,-260.502"/>
<ellipse fill="none" stroke="#16eafd" cx="2586.5" cy="-284.647" rx="4.00002" ry="4.00002"/>
<polygon fill="#16eafd" stroke="#16eafd" points="2571.55,-260.31 2570.15,-249.434 2568.93,-256.049 2566.31,-251.789 2566.31,-251.789 2566.31,-251.789 2568.93,-256.049 2562.48,-254.144 2571.55,-260.31 2571.55,-260.31"/>
</g>
<!-- ChangeItem&#45;&gt;DesignChange -->
<g id="edge56" class="edge"><title>ChangeItem&#45;&gt;DesignChange</title>
<path fill="none" stroke="#8c5cd2" d="M2611.84,-280.827C2616.17,-271.947 2620.73,-261.692 2624,-252 2630.85,-231.698 2635.78,-207.928 2638.89,-190.063"/>
<ellipse fill="none" stroke="#8c5cd2" cx="2609.92" cy="-284.652" rx="4.00002" ry="4.00002"/>
<polygon fill="#8c5cd2" stroke="#8c5cd2" points="2638.92,-189.907 2645,-180.781 2639.74,-184.974 2640.56,-180.042 2640.56,-180.042 2640.56,-180.042 2639.74,-184.974 2636.12,-179.304 2638.92,-189.907 2638.92,-189.907"/>
</g>
<!-- Platform -->
<g id="node28" class="node"><title>Platform</title>
<ellipse fill="none" stroke="black" cx="712" cy="-378" rx="42.3701" ry="18"/>
<text text-anchor="middle" x="712" y="-374.3" font-family="Times,serif" font-size="14.00">Platform</text>
</g>
<!-- Platform&#45;&gt;BoardDesignEntry -->
<g id="edge60" class="edge"><title>Platform&#45;&gt;BoardDesignEntry</title>
<path fill="none" stroke="#d75ac6" d="M757.28,-367.892C844.839,-349.262 1032.02,-304.134 1069,-252 1083.49,-231.58 1067.37,-205.681 1050.71,-187.094"/>
<ellipse fill="none" stroke="#d75ac6" cx="753.293" cy="-368.733" rx="4.00001" ry="4.00001"/>
<polygon fill="#d75ac6" stroke="#d75ac6" points="1050.5,-186.874 1046.9,-176.519 1047.07,-183.243 1043.63,-179.613 1043.63,-179.613 1043.63,-179.613 1047.07,-183.243 1040.36,-182.707 1050.5,-186.874 1050.5,-186.874"/>
</g>
<!-- Platform&#45;&gt;Board -->
<g id="edge58" class="edge"><title>Platform&#45;&gt;Board</title>
<path fill="none" stroke="#104513" d="M667.331,-367.044C624.953,-357.264 559.656,-341.323 504,-324 499.834,-322.703 495.492,-321.244 491.212,-319.74"/>
<ellipse fill="none" stroke="#104513" cx="671.331" cy="-367.962" rx="4.00001" ry="4.00001"/>
<ellipse fill="#104513" stroke="#104513" cx="487.39" cy="-318.364" rx="4.00001" ry="4.00001"/>
</g>
<!-- ReviewType -->
<g id="node29" class="node"><title>ReviewType</title>
<ellipse fill="none" stroke="black" cx="1453" cy="-234" rx="55.3436" ry="18"/>
<text text-anchor="middle" x="1453" y="-230.3" font-family="Times,serif" font-size="14.00">ReviewType</text>
</g>
<!-- Role -->
<g id="node56" class="node"><title>Role</title>
<ellipse fill="none" stroke="black" cx="1366" cy="-162" rx="26.949" ry="18"/>
<text text-anchor="middle" x="1366" y="-158.3" font-family="Times,serif" font-size="14.00">Role</text>
</g>
<!-- ReviewType&#45;&gt;Role -->
<g id="edge62" class="edge"><title>ReviewType&#45;&gt;Role</title>
<path fill="none" stroke="#6b7966" d="M1425.36,-210.758C1414.19,-201.776 1401.42,-191.496 1390.58,-182.779"/>
<polygon fill="#6b7966" stroke="#6b7966" points="1425.47,-210.847 1430.44,-220.622 1429.36,-213.982 1433.26,-217.116 1433.26,-217.116 1433.26,-217.116 1429.36,-213.982 1436.08,-213.61 1425.47,-210.847 1425.47,-210.847"/>
<polygon fill="#6b7966" stroke="#6b7966" points="1390.53,-182.734 1385.56,-172.96 1386.63,-179.6 1382.74,-176.466 1382.74,-176.466 1382.74,-176.466 1386.63,-179.6 1379.91,-179.972 1390.53,-182.734 1390.53,-182.734"/>
</g>
<!-- ReviewType&#45;&gt;DesignReview -->
<g id="edge64" class="edge"><title>ReviewType&#45;&gt;DesignReview</title>
<path fill="none" stroke="#f8bce1" d="M1478.79,-211.508C1488.57,-203.361 1499.73,-194.06 1509.64,-185.796"/>
<ellipse fill="none" stroke="#f8bce1" cx="1475.56" cy="-214.204" rx="4.00002" ry="4.00002"/>
<polygon fill="#f8bce1" stroke="#f8bce1" points="1509.94,-185.549 1520.5,-182.604 1513.78,-182.348 1517.62,-179.147 1517.62,-179.147 1517.62,-179.147 1513.78,-182.348 1514.74,-175.69 1509.94,-185.549 1509.94,-185.549"/>
</g>
<!-- User&#45;&gt;OiAssignmentComment -->
<g id="edge84" class="edge"><title>User&#45;&gt;OiAssignmentComment</title>
<path fill="none" stroke="#937369" d="M1841.38,-377.049C1978.73,-376.304 2469,-364.569 2469,-235 2469,-235 2469,-235 2469,-161 2469,-72.7778 2360.1,-39.3473 2275.08,-26.6909"/>
<ellipse fill="none" stroke="#937369" cx="1837.23" cy="-377.066" rx="4" ry="4"/>
<polygon fill="#937369" stroke="#937369" points="2275,-26.6802 2265.73,-20.8272 2270.05,-25.9817 2265.1,-25.2831 2265.1,-25.2831 2265.1,-25.2831 2270.05,-25.9817 2264.47,-29.739 2275,-26.6802 2275,-26.6802"/>
</g>
<!-- User&#45;&gt;OiAssignment -->
<g id="edge82" class="edge"><title>User&#45;&gt;OiAssignment</title>
<path fill="none" stroke="#295345" d="M1841.55,-375.084C1911.91,-370.605 2065.57,-357.201 2105,-324 2164.59,-273.825 2141.42,-167.538 2126.2,-117.765"/>
<ellipse fill="none" stroke="#295345" cx="1837.38" cy="-375.34" rx="4" ry="4"/>
<polygon fill="#295345" stroke="#295345" points="2126.14,-117.572 2127.4,-106.678 2124.63,-112.807 2123.11,-108.042 2123.11,-108.042 2123.11,-108.042 2124.63,-112.807 2118.82,-109.407 2126.14,-117.572 2126.14,-117.572"/>
</g>
<!-- User&#45;&gt;EcoComment -->
<g id="edge78" class="edge"><title>User&#45;&gt;EcoComment</title>
<path fill="none" stroke="#0b1343" d="M1841.32,-374.983C1920.56,-369.952 2109.88,-354.965 2165,-324 2191.25,-309.253 2212.12,-281.282 2224.92,-260.618"/>
<ellipse fill="none" stroke="#0b1343" cx="1837.1" cy="-375.245" rx="4" ry="4"/>
<polygon fill="#0b1343" stroke="#0b1343" points="2224.94,-260.58 2233.93,-254.294 2227.5,-256.285 2230.06,-251.99 2230.06,-251.99 2230.06,-251.99 2227.5,-256.285 2226.19,-249.686 2224.94,-260.58 2224.94,-260.58"/>
</g>
<!-- User&#45;&gt;AuditTeammate -->
<g id="edge68" class="edge"><title>User&#45;&gt;AuditTeammate</title>
<path fill="none" stroke="#c244c5" d="M1770.65,-376.125C1567.89,-371.037 560.997,-344.75 537,-324 477.382,-272.451 482.327,-167.689 488.611,-118.137"/>
<ellipse fill="none" stroke="#c244c5" cx="1774.88" cy="-376.231" rx="4" ry="4"/>
<polygon fill="#c244c5" stroke="#c244c5" points="488.62,-118.07 494.448,-108.781 489.305,-113.117 489.991,-108.164 489.991,-108.164 489.991,-108.164 489.305,-113.117 485.533,-107.547 488.62,-118.07 488.62,-118.07"/>
</g>
<!-- User&#45;&gt;OiInstruction -->
<g id="edge88" class="edge"><title>User&#45;&gt;OiInstruction</title>
<path fill="none" stroke="#fcd612" d="M1838.62,-368.149C1862.58,-360.146 1894.41,-346.162 1915,-324 1950.16,-286.147 1927.44,-257.66 1958,-216 1966.8,-204.001 1978.93,-193.136 1990.34,-184.412"/>
<ellipse fill="none" stroke="#fcd612" cx="1834.63" cy="-369.421" rx="4.00001" ry="4.00001"/>
<polygon fill="#fcd612" stroke="#fcd612" points="1990.39,-184.371 2001.11,-182.079 1994.42,-181.411 1998.45,-178.452 1998.45,-178.452 1998.45,-178.452 1994.42,-181.411 1995.79,-174.825 1990.39,-184.371 1990.39,-184.371"/>
</g>
<!-- User&#45;&gt;EcoDocument -->
<g id="edge80" class="edge"><title>User&#45;&gt;EcoDocument</title>
<path fill="none" stroke="#996f7c" d="M1841.28,-376.797C1941.93,-375.675 2228.35,-368.548 2309,-324 2334.67,-309.823 2354.19,-281.953 2366.01,-261.159"/>
<ellipse fill="none" stroke="#996f7c" cx="1837.24" cy="-376.838" rx="4" ry="4"/>
<polygon fill="#996f7c" stroke="#996f7c" points="2366.12,-260.963 2374.85,-254.328 2368.51,-256.57 2370.9,-252.178 2370.9,-252.178 2370.9,-252.178 2368.51,-256.57 2366.94,-250.028 2366.12,-260.963 2366.12,-260.963"/>
</g>
<!-- User&#45;&gt;DesignReviewComment -->
<g id="edge74" class="edge"><title>User&#45;&gt;DesignReviewComment</title>
<path fill="none" stroke="#084ff7" d="M1809.62,-351.856C1814.96,-308.438 1822.19,-217.043 1801,-144 1798.23,-134.448 1793.28,-124.877 1788.09,-116.548"/>
<ellipse fill="none" stroke="#084ff7" cx="1809.09" cy="-355.913" rx="4.00001" ry="4.00001"/>
<polygon fill="#084ff7" stroke="#084ff7" points="1787.99,-116.391 1786.21,-105.57 1785.22,-112.225 1782.46,-108.059 1782.46,-108.059 1782.46,-108.059 1785.22,-112.225 1778.71,-110.547 1787.99,-116.391 1787.99,-116.391"/>
</g>
<!-- BoardDesignEntryUser -->
<g id="node34" class="node"><title>BoardDesignEntryUser</title>
<ellipse fill="none" stroke="black" cx="1060" cy="-90" rx="92.413" ry="18"/>
<text text-anchor="middle" x="1060" y="-86.3" font-family="Times,serif" font-size="14.00">BoardDesignEntryUser</text>
</g>
<!-- User&#45;&gt;BoardDesignEntryUser -->
<g id="edge72" class="edge"><title>User&#45;&gt;BoardDesignEntryUser</title>
<path fill="none" stroke="#d8b8b1" d="M1770.77,-375.045C1687.44,-369.966 1480.59,-354.572 1419,-324 1358.2,-293.818 1366.1,-255.648 1311,-216 1246.64,-169.693 1162.59,-131.714 1109.94,-110.209"/>
<ellipse fill="none" stroke="#d8b8b1" cx="1774.91" cy="-375.293" rx="4" ry="4"/>
<polygon fill="#d8b8b1" stroke="#d8b8b1" points="1109.76,-110.136 1102.17,-102.215 1105.12,-108.261 1100.49,-106.387 1100.49,-106.387 1100.49,-106.387 1105.12,-108.261 1098.8,-110.559 1109.76,-110.136 1109.76,-110.136"/>
</g>
<!-- User&#45;&gt;BoardDesignEntry -->
<g id="edge70" class="edge"><title>User&#45;&gt;BoardDesignEntry</title>
<path fill="none" stroke="#70a9ef" d="M1770.55,-375.909C1646.01,-371.816 1233.36,-355.945 1184,-324 1137.9,-294.168 1163.13,-254.524 1124,-216 1109.7,-201.921 1090.89,-190.595 1073.52,-182.084"/>
<ellipse fill="none" stroke="#70a9ef" cx="1774.67" cy="-376.043" rx="4" ry="4"/>
<polygon fill="#70a9ef" stroke="#70a9ef" points="1073.1,-181.89 1065.96,-173.571 1068.57,-179.768 1064.05,-177.646 1064.05,-177.646 1064.05,-177.646 1068.57,-179.768 1062.14,-181.721 1073.1,-181.89 1073.1,-181.89"/>
</g>
<!-- DesignUpdate -->
<g id="node41" class="node"><title>DesignUpdate</title>
<ellipse fill="none" stroke="black" cx="1420" cy="-90" rx="61.1419" ry="18"/>
<text text-anchor="middle" x="1420" y="-86.3" font-family="Times,serif" font-size="14.00">DesignUpdate</text>
</g>
<!-- User&#45;&gt;DesignUpdate -->
<g id="edge76" class="edge"><title>User&#45;&gt;DesignUpdate</title>
<path fill="none" stroke="#f37662" d="M1806.35,-351.923C1805.54,-303.551 1796.31,-197.426 1734,-144 1692.39,-108.324 1543.8,-118.478 1490,-108 1484.91,-107.009 1479.64,-105.894 1474.37,-104.72"/>
<ellipse fill="none" stroke="#f37662" cx="1806.38" cy="-355.988" rx="4" ry="4"/>
<polygon fill="#f37662" stroke="#f37662" points="1474.05,-104.646 1465.31,-98.0225 1469.18,-103.527 1464.3,-102.408 1464.3,-102.408 1464.3,-102.408 1469.18,-103.527 1463.29,-106.794 1474.05,-104.646 1474.05,-104.646"/>
</g>
<!-- User&#45;&gt;AuditComment -->
<g id="edge66" class="edge"><title>User&#45;&gt;AuditComment</title>
<path fill="none" stroke="#587939" d="M1822.37,-355.046C1861.43,-299.826 1951.44,-153.746 1876,-72 1837.16,-29.9146 1458.38,-21.2366 1293.28,-19.4557"/>
<ellipse fill="none" stroke="#587939" cx="1819.98" cy="-358.37" rx="4.00002" ry="4.00002"/>
<polygon fill="#587939" stroke="#587939" points="1293.2,-19.4549 1283.24,-14.8529 1288.2,-19.4038 1283.2,-19.3527 1283.2,-19.3527 1283.2,-19.3527 1288.2,-19.4038 1283.15,-23.8524 1293.2,-19.4549 1293.2,-19.4549"/>
</g>
<!-- User&#45;&gt;Role -->
<g id="edge96" class="edge"><title>User&#45;&gt;Role</title>
<path fill="none" stroke="#6ed372" d="M1768.92,-374.151C1691.51,-367.743 1515.46,-350.64 1462,-324 1451.73,-318.884 1393.71,-261.951 1388,-252 1377.08,-232.956 1371.54,-208.597 1368.75,-190.179"/>
<polygon fill="#6ed372" stroke="#6ed372" points="1769.2,-374.173 1778.8,-379.469 1774.18,-374.579 1779.17,-374.984 1779.17,-374.984 1779.17,-374.984 1774.18,-374.579 1779.53,-370.499 1769.2,-374.173 1769.2,-374.173"/>
<polygon fill="#6ed372" stroke="#6ed372" points="1368.73,-190.019 1371.87,-179.512 1368.07,-185.063 1367.41,-180.107 1367.41,-180.107 1367.41,-180.107 1368.07,-185.063 1362.95,-180.701 1368.73,-190.019 1368.73,-190.019"/>
</g>
<!-- EcoTask -->
<g id="node57" class="node"><title>EcoTask</title>
<ellipse fill="none" stroke="black" cx="2259" cy="-306" rx="41.394" ry="18"/>
<text text-anchor="middle" x="2259" y="-302.3" font-family="Times,serif" font-size="14.00">EcoTask</text>
</g>
<!-- User&#45;&gt;EcoTask -->
<g id="edge92" class="edge"><title>User&#45;&gt;EcoTask</title>
<path fill="none" stroke="#2442a3" d="M1843.42,-374.041C1914.23,-367.993 2072.44,-352.337 2203,-324 2207.72,-322.976 2212.61,-321.747 2217.45,-320.424"/>
<polygon fill="#2442a3" stroke="#2442a3" points="1843.18,-374.061 1832.84,-370.413 1838.2,-374.479 1833.22,-374.897 1833.22,-374.897 1833.22,-374.897 1838.2,-374.479 1833.59,-379.381 1843.18,-374.061 1843.18,-374.061"/>
<polygon fill="#2442a3" stroke="#2442a3" points="2217.64,-320.371 2228.49,-321.938 2222.45,-318.992 2227.25,-317.613 2227.25,-317.613 2227.25,-317.613 2222.45,-318.992 2226.01,-313.287 2217.64,-320.371 2217.64,-320.371"/>
</g>
<!-- User&#45;&gt;OiAssignmentReport -->
<g id="edge86" class="edge"><title>User&#45;&gt;OiAssignmentReport</title>
<path fill="none" stroke="#ac0fa6" d="M1833.95,-362.067C1848.7,-352.883 1865.97,-339.838 1877,-324 1938.96,-235.014 1958.82,-103.043 1964.71,-46.4225"/>
<ellipse fill="none" stroke="#ac0fa6" cx="1830.38" cy="-364.205" rx="4.00002" ry="4.00002"/>
<polygon fill="#ac0fa6" stroke="#ac0fa6" points="1964.74,-46.0913 1970.19,-36.5737 1965.23,-41.1147 1965.71,-36.1382 1965.71,-36.1382 1965.71,-36.1382 1965.23,-41.1147 1961.23,-35.7027 1964.74,-46.0913 1964.74,-46.0913"/>
</g>
<!-- User&#45;&gt;Board -->
<g id="edge90" class="edge"><title>User&#45;&gt;Board</title>
<path fill="none" stroke="#d0168e" d="M1768.66,-376.176C1568.89,-371.677 630.75,-349.343 504,-324 500.274,-323.255 496.45,-322.253 492.674,-321.107"/>
<polygon fill="#d0168e" stroke="#d0168e" points="1768.93,-376.182 1778.83,-380.905 1773.93,-376.294 1778.93,-376.407 1778.93,-376.407 1778.93,-376.407 1773.93,-376.294 1779.03,-371.908 1768.93,-376.182 1768.93,-376.182"/>
<polygon fill="#d0168e" stroke="#d0168e" points="492.371,-321.005 484.332,-313.547 487.633,-319.408 482.895,-317.811 482.895,-317.811 482.895,-317.811 487.633,-319.408 481.458,-322.076 492.371,-321.005 492.371,-321.005"/>
</g>
<!-- IpdPost -->
<g id="node111" class="node"><title>IpdPost</title>
<ellipse fill="none" stroke="black" cx="1688" cy="-162" rx="37.5442" ry="18"/>
<text text-anchor="middle" x="1688" y="-158.3" font-family="Times,serif" font-size="14.00">IpdPost</text>
</g>
<!-- User&#45;&gt;IpdPost -->
<g id="edge94" class="edge"><title>User&#45;&gt;IpdPost</title>
<path fill="none" stroke="#663cda" d="M1789.53,-352.575C1783.93,-343.766 1777.86,-333.621 1773,-324 1749.7,-277.889 1755.87,-260.719 1730,-216 1724.12,-205.835 1716.42,-195.521 1709.22,-186.728"/>
<polygon fill="#663cda" stroke="#663cda" points="1789.68,-352.807 1791.35,-363.645 1792.4,-357.001 1795.12,-361.194 1795.12,-361.194 1795.12,-361.194 1792.4,-357.001 1798.9,-358.744 1789.68,-352.807 1789.68,-352.807"/>
<polygon fill="#663cda" stroke="#663cda" points="1709,-186.462 1705.99,-175.916 1705.78,-182.639 1702.55,-178.817 1702.55,-178.817 1702.55,-178.817 1705.78,-182.639 1699.11,-181.718 1709,-186.462 1709,-186.462"/>
</g>
<!-- DesignReviewDocument -->
<g id="node31" class="node"><title>DesignReviewDocument</title>
<ellipse fill="none" stroke="black" cx="246" cy="-162" rx="99.1619" ry="18"/>
<text text-anchor="middle" x="246" y="-158.3" font-family="Times,serif" font-size="14.00">DesignReviewDocument</text>
</g>
<!-- DocumentType -->
<g id="node51" class="node"><title>DocumentType</title>
<ellipse fill="none" stroke="black" cx="224" cy="-90" rx="65.4659" ry="18"/>
<text text-anchor="middle" x="224" y="-86.3" font-family="Times,serif" font-size="14.00">DocumentType</text>
</g>
<!-- DesignReviewDocument&#45;&gt;DocumentType -->
<g id="edge98" class="edge"><title>DesignReviewDocument&#45;&gt;DocumentType</title>
<path fill="none" stroke="#d5f291" d="M238.118,-135.92C236.26,-130.01 234.274,-123.689 232.395,-117.71"/>
<ellipse fill="none" stroke="#d5f291" cx="239.362" cy="-139.881" rx="4.00001" ry="4.00001"/>
<polygon fill="#d5f291" stroke="#d5f291" points="232.374,-117.644 233.669,-106.755 230.875,-112.874 229.376,-108.104 229.376,-108.104 229.376,-108.104 230.875,-112.874 225.083,-109.454 232.374,-117.644 232.374,-117.644"/>
</g>
<!-- Project -->
<g id="node32" class="node"><title>Project</title>
<ellipse fill="none" stroke="black" cx="398" cy="-378" rx="35.6194" ry="18"/>
<text text-anchor="middle" x="398" y="-374.3" font-family="Times,serif" font-size="14.00">Project</text>
</g>
<!-- Project&#45;&gt;BoardDesignEntry -->
<g id="edge102" class="edge"><title>Project&#45;&gt;BoardDesignEntry</title>
<path fill="none" stroke="#2241e6" d="M397.379,-351.823C398.195,-332.371 402.297,-305.844 417,-288 468.918,-224.99 507.131,-237.103 586,-216 706.322,-183.805 850.464,-171.13 939.903,-166.165"/>
<ellipse fill="none" stroke="#2241e6" cx="397.292" cy="-355.943" rx="4" ry="4"/>
<polygon fill="#2241e6" stroke="#2241e6" points="940.01,-166.159 950.236,-170.118 945.003,-165.892 949.995,-165.624 949.995,-165.624 949.995,-165.624 945.003,-165.892 949.755,-161.131 940.01,-166.159 940.01,-166.159"/>
</g>
<!-- Project&#45;&gt;Board -->
<g id="edge100" class="edge"><title>Project&#45;&gt;Board</title>
<path fill="none" stroke="#c7e663" d="M416.943,-354.9C423.918,-346.762 431.82,-337.544 438.816,-329.382"/>
<ellipse fill="none" stroke="#c7e663" cx="414.218" cy="-358.079" rx="4.00002" ry="4.00002"/>
<ellipse fill="#c7e663" stroke="#c7e663" cx="441.836" cy="-325.858" rx="4.00002" ry="4.00002"/>
</g>
<!-- EcoType -->
<g id="node33" class="node"><title>EcoType</title>
<ellipse fill="none" stroke="black" cx="2259" cy="-378" rx="42.3701" ry="18"/>
<text text-anchor="middle" x="2259" y="-374.3" font-family="Times,serif" font-size="14.00">EcoType</text>
</g>
<!-- EcoType&#45;&gt;EcoTask -->
<g id="edge104" class="edge"><title>EcoType&#45;&gt;EcoTask</title>
<path fill="none" stroke="#b3d53a" d="M2259,-349.665C2259,-344.687 2259,-339.491 2259,-334.507"/>
<polygon fill="#b3d53a" stroke="#b3d53a" points="2259,-349.697 2254.5,-359.697 2259,-354.697 2259,-359.697 2259,-359.697 2259,-359.697 2259,-354.697 2263.5,-359.697 2259,-349.697 2259,-349.697"/>
<polygon fill="#b3d53a" stroke="#b3d53a" points="2259,-334.104 2263.5,-324.104 2259,-329.104 2259,-324.104 2259,-324.104 2259,-324.104 2259,-329.104 2254.5,-324.104 2259,-334.104 2259,-334.104"/>
</g>
<!-- Document -->
<g id="node35" class="node"><title>Document</title>
<ellipse fill="none" stroke="black" cx="178" cy="-234" rx="48.1437" ry="18"/>
<text text-anchor="middle" x="178" y="-230.3" font-family="Times,serif" font-size="14.00">Document</text>
</g>
<!-- Document&#45;&gt;DesignReviewDocument -->
<g id="edge106" class="edge"><title>Document&#45;&gt;DesignReviewDocument</title>
<path fill="none" stroke="#e5e693" d="M199.542,-210.825C206.775,-203.379 214.88,-195.035 222.271,-187.427"/>
<ellipse fill="none" stroke="#e5e693" cx="196.559" cy="-213.896" rx="4.00002" ry="4.00002"/>
<polygon fill="#e5e693" stroke="#e5e693" points="222.397,-187.297 232.593,-183.259 225.881,-183.71 229.365,-180.124 229.365,-180.124 229.365,-180.124 225.881,-183.71 226.138,-176.988 222.397,-187.297 222.397,-187.297"/>
</g>
<!-- PartNum -->
<g id="node36" class="node"><title>PartNum</title>
<ellipse fill="none" stroke="black" cx="906" cy="-90" rx="42.3456" ry="18"/>
<text text-anchor="middle" x="906" y="-86.3" font-family="Times,serif" font-size="14.00">PartNum</text>
</g>
<!-- Revision -->
<g id="node37" class="node"><title>Revision</title>
<ellipse fill="none" stroke="black" cx="588" cy="-306" rx="42.3701" ry="18"/>
<text text-anchor="middle" x="588" y="-302.3" font-family="Times,serif" font-size="14.00">Revision</text>
</g>
<!-- Revision&#45;&gt;BoardDesignEntry -->
<g id="edge110" class="edge"><title>Revision&#45;&gt;BoardDesignEntry</title>
<path fill="none" stroke="#543f67" d="M586.099,-279.6C586.087,-259.375 589.697,-231.904 607,-216 653.826,-172.96 829.901,-163.937 938.032,-162.576"/>
<ellipse fill="none" stroke="#543f67" cx="586.2" cy="-283.771" rx="4" ry="4"/>
<polygon fill="#543f67" stroke="#543f67" points="938.278,-162.574 948.325,-166.967 943.278,-162.521 948.278,-162.468 948.278,-162.468 948.278,-162.468 943.278,-162.521 948.23,-157.968 938.278,-162.574 938.278,-162.574"/>
</g>
<!-- Audit -->
<g id="node58" class="node"><title>Audit</title>
<ellipse fill="none" stroke="black" cx="551" cy="-162" rx="30.3206" ry="18"/>
<text text-anchor="middle" x="551" y="-158.3" font-family="Times,serif" font-size="14.00">Audit</text>
</g>
<!-- Revision&#45;&gt;Audit -->
<g id="edge108" class="edge"><title>Revision&#45;&gt;Audit</title>
<path fill="none" stroke="#089598" d="M581.387,-280.076C579.043,-271.215 576.395,-261.165 574,-252 568.383,-230.504 562.073,-206.067 557.486,-188.245"/>
<ellipse fill="none" stroke="#089598" cx="582.413" cy="-283.954" rx="4.00001" ry="4.00001"/>
<ellipse fill="#089598" stroke="#089598" cx="556.379" cy="-183.943" rx="4.00001" ry="4.00001"/>
</g>
<!-- Revision&#45;&gt;Design -->
<g id="edge112" class="edge"><title>Revision&#45;&gt;Design</title>
<path fill="none" stroke="#9ee928" d="M636.687,-299.981C763.171,-286.941 1100.76,-252.138 1222.47,-239.59"/>
<ellipse fill="none" stroke="#9ee928" cx="632.42" cy="-300.421" rx="4" ry="4"/>
<polygon fill="#9ee928" stroke="#9ee928" points="1222.61,-239.577 1233.02,-243.027 1227.58,-239.064 1232.56,-238.551 1232.56,-238.551 1232.56,-238.551 1227.58,-239.064 1232.09,-234.075 1222.61,-239.577 1222.61,-239.577"/>
</g>
<!-- Check -->
<g id="node38" class="node"><title>Check</title>
<ellipse fill="none" stroke="black" cx="357" cy="-18" rx="33.2209" ry="18"/>
<text text-anchor="middle" x="357" y="-14.3" font-family="Times,serif" font-size="14.00">Check</text>
</g>
<!-- DesignReviewResult -->
<g id="node39" class="node"><title>DesignReviewResult</title>
<ellipse fill="none" stroke="black" cx="1256" cy="-90" rx="85.2138" ry="18"/>
<text text-anchor="middle" x="1256" y="-86.3" font-family="Times,serif" font-size="14.00">DesignReviewResult</text>
</g>
<!-- BoardDesignEntry&#45;&gt;BoardDesignEntryUser -->
<g id="edge114" class="edge"><title>BoardDesignEntry&#45;&gt;BoardDesignEntryUser</title>
<path fill="none" stroke="#6d91d6" d="M1037.09,-136.827C1040.24,-130.515 1043.66,-123.681 1046.87,-117.266"/>
<ellipse fill="none" stroke="#6d91d6" cx="1035.26" cy="-140.477" rx="4.00002" ry="4.00002"/>
<polygon fill="#6d91d6" stroke="#6d91d6" points="1046.89,-117.22 1055.39,-110.288 1049.13,-112.747 1051.36,-108.275 1051.36,-108.275 1051.36,-108.275 1049.13,-112.747 1047.34,-106.263 1046.89,-117.22 1046.89,-117.22"/>
</g>
<!-- BoardDesignEntry&#45;&gt;PartNum -->
<g id="edge116" class="edge"><title>BoardDesignEntry&#45;&gt;PartNum</title>
<path fill="none" stroke="#0a4572" d="M991.047,-141.028C974.618,-131.363 954.98,-119.812 938.717,-110.245"/>
<ellipse fill="none" stroke="#0a4572" cx="994.549" cy="-143.088" rx="4.00002" ry="4.00002"/>
<polygon fill="#0a4572" stroke="#0a4572" points="938.69,-110.229 932.352,-101.28 934.38,-107.694 930.07,-105.159 930.07,-105.159 930.07,-105.159 934.38,-107.694 927.789,-109.038 938.69,-110.229 938.69,-110.229"/>
</g>
<!-- Priority -->
<g id="node42" class="node"><title>Priority</title>
<ellipse fill="none" stroke="black" cx="1509" cy="-306" rx="37.5442" ry="18"/>
<text text-anchor="middle" x="1509" y="-302.3" font-family="Times,serif" font-size="14.00">Priority</text>
</g>
<!-- Priority&#45;&gt;Design -->
<g id="edge118" class="edge"><title>Priority&#45;&gt;Design</title>
<path fill="none" stroke="#ceeb62" d="M1470.12,-293.752C1425.24,-280.77 1351.82,-259.535 1306.63,-246.463"/>
<ellipse fill="none" stroke="#ceeb62" cx="1474.02" cy="-294.881" rx="4.00001" ry="4.00001"/>
<polygon fill="#ceeb62" stroke="#ceeb62" points="1306.49,-246.423 1298.13,-239.321 1301.69,-245.033 1296.88,-243.644 1296.88,-243.644 1296.88,-243.644 1301.69,-245.033 1295.63,-247.967 1306.49,-246.423 1306.49,-246.423"/>
</g>
<!-- Priority&#45;&gt;DesignReview -->
<g id="edge120" class="edge"><title>Priority&#45;&gt;DesignReview</title>
<path fill="none" stroke="#34a82f" d="M1513.94,-279.929C1518.91,-254.725 1526.55,-215.994 1531.66,-190.095"/>
<ellipse fill="none" stroke="#34a82f" cx="1513.15" cy="-283.947" rx="4.00001" ry="4.00001"/>
<polygon fill="#34a82f" stroke="#34a82f" points="1531.68,-190 1538.03,-181.06 1532.64,-185.095 1533.61,-180.189 1533.61,-180.189 1533.61,-180.189 1532.64,-185.095 1529.2,-179.319 1531.68,-190 1531.68,-190"/>
</g>
<!-- ChangeClass -->
<g id="node43" class="node"><title>ChangeClass</title>
<ellipse fill="none" stroke="black" cx="2677" cy="-471" rx="56.3173" ry="18"/>
<text text-anchor="middle" x="2677" y="-467.3" font-family="Times,serif" font-size="14.00">ChangeClass</text>
</g>
<!-- ChangeClass&#45;&gt;ChangeType -->
<g id="edge122" class="edge"><title>ChangeClass&#45;&gt;ChangeType</title>
<path fill="none" stroke="#e163a0" d="M2665.73,-445.587C2659.97,-433.111 2652.96,-417.92 2647.09,-405.2"/>
<ellipse fill="none" stroke="#e163a0" cx="2667.42" cy="-449.252" rx="4.00002" ry="4.00002"/>
<polygon fill="#e163a0" stroke="#e163a0" points="2647.06,-405.119 2646.95,-394.154 2644.96,-400.579 2642.86,-396.04 2642.86,-396.04 2642.86,-396.04 2644.96,-400.579 2638.78,-397.925 2647.06,-405.119 2647.06,-405.119"/>
</g>
<!-- ChangeClass&#45;&gt;DesignChange -->
<g id="edge124" class="edge"><title>ChangeClass&#45;&gt;DesignChange</title>
<path fill="none" stroke="#643a3d" d="M2686.35,-445.138C2691.18,-430.965 2696.56,-412.742 2699,-396 2707.96,-334.423 2674.3,-216.832 2674,-216 2670.56,-206.589 2665.46,-196.944 2660.4,-188.505"/>
<ellipse fill="none" stroke="#643a3d" cx="2684.92" cy="-449.199" rx="4.00001" ry="4.00001"/>
<polygon fill="#643a3d" stroke="#643a3d" points="2660.3,-188.358 2658.8,-177.496 2657.64,-184.123 2654.99,-179.889 2654.99,-179.889 2654.99,-179.889 2657.64,-184.123 2651.17,-182.282 2660.3,-188.358 2660.3,-188.358"/>
</g>
<!-- Subsection&#45;&gt;Check -->
<g id="edge126" class="edge"><title>Subsection&#45;&gt;Check</title>
<path fill="none" stroke="#dcc530" d="M357,-63.6398C357,-58.0629 357,-52.1319 357,-46.4761"/>
<ellipse fill="none" stroke="#dcc530" cx="357" cy="-67.6966" rx="4" ry="4"/>
<polygon fill="#dcc530" stroke="#dcc530" points="357,-46.1043 361.5,-36.1043 357,-41.1043 357,-36.1043 357,-36.1043 357,-36.1043 357,-41.1043 352.5,-36.1044 357,-46.1043 357,-46.1043"/>
</g>
<!-- DesignDirectory -->
<g id="node45" class="node"><title>DesignDirectory</title>
<ellipse fill="none" stroke="black" cx="991" cy="-234" rx="69.3156" ry="18"/>
<text text-anchor="middle" x="991" y="-230.3" font-family="Times,serif" font-size="14.00">DesignDirectory</text>
</g>
<!-- DesignDirectory&#45;&gt;BoardDesignEntry -->
<g id="edge128" class="edge"><title>DesignDirectory&#45;&gt;BoardDesignEntry</title>
<path fill="none" stroke="#66908b" d="M1002.74,-208.827C1005.74,-202.661 1008.97,-195.999 1012.02,-189.714"/>
<ellipse fill="none" stroke="#66908b" cx="1000.98" cy="-212.457" rx="4.00002" ry="4.00002"/>
<polygon fill="#66908b" stroke="#66908b" points="1012.24,-189.27 1020.66,-182.241 1014.42,-184.773 1016.61,-180.275 1016.61,-180.275 1016.61,-180.275 1014.42,-184.773 1012.56,-178.309 1012.24,-189.27 1012.24,-189.27"/>
</g>
<!-- Pcbtr -->
<g id="node46" class="node"><title>Pcbtr</title>
<ellipse fill="none" stroke="black" cx="3143" cy="-471" rx="29.3722" ry="18"/>
<text text-anchor="middle" x="3143" y="-467.3" font-family="Times,serif" font-size="14.00">Pcbtr</text>
</g>
<!-- BoardReviewer -->
<g id="node47" class="node"><title>BoardReviewer</title>
<ellipse fill="none" stroke="black" cx="779" cy="-90" rx="65.4659" ry="18"/>
<text text-anchor="middle" x="779" y="-86.3" font-family="Times,serif" font-size="14.00">BoardReviewer</text>
</g>
<!-- SessionCleaner -->
<g id="node49" class="node"><title>SessionCleaner</title>
<polygon fill="none" stroke="black" points="3290,-489 3190,-489 3190,-453 3290,-453 3290,-489"/>
<text text-anchor="middle" x="3240" y="-467.3" font-family="Times,serif" font-size="14.00">SessionCleaner</text>
</g>
<!-- Checklist -->
<g id="node50" class="node"><title>Checklist</title>
<ellipse fill="none" stroke="black" cx="326" cy="-234" rx="44.2946" ry="18"/>
<text text-anchor="middle" x="326" y="-230.3" font-family="Times,serif" font-size="14.00">Checklist</text>
</g>
<!-- Checklist&#45;&gt;Section -->
<g id="edge130" class="edge"><title>Checklist&#45;&gt;Section</title>
<path fill="none" stroke="#60186b" d="M348.829,-211.405C357.579,-203.128 367.574,-193.673 376.395,-185.329"/>
<ellipse fill="none" stroke="#60186b" cx="345.698" cy="-214.367" rx="4.00002" ry="4.00002"/>
<polygon fill="#60186b" stroke="#60186b" points="376.519,-185.212 386.876,-181.609 380.151,-181.776 383.783,-178.34 383.783,-178.34 383.783,-178.34 380.151,-181.776 380.691,-175.071 376.519,-185.212 376.519,-185.212"/>
</g>
<!-- Checklist&#45;&gt;Audit -->
<g id="edge132" class="edge"><title>Checklist&#45;&gt;Audit</title>
<path fill="none" stroke="#eea824" d="M367.862,-219.976C410.176,-206.812 474.88,-186.682 514.975,-174.208"/>
<ellipse fill="none" stroke="#eea824" cx="363.992" cy="-221.18" rx="4.00001" ry="4.00001"/>
<polygon fill="#eea824" stroke="#eea824" points="515.061,-174.181 525.946,-175.507 519.835,-172.696 524.609,-171.21 524.609,-171.21 524.609,-171.21 519.835,-172.696 523.273,-166.914 515.061,-174.181 515.061,-174.181"/>
</g>
<!-- Ping -->
<g id="node52" class="node"><title>Ping</title>
<ellipse fill="none" stroke="black" cx="3335" cy="-471" rx="27" ry="18"/>
<text text-anchor="middle" x="3335" y="-467.3" font-family="Times,serif" font-size="14.00">Ping</text>
</g>
<!-- ProductType -->
<g id="node53" class="node"><title>ProductType</title>
<ellipse fill="none" stroke="black" cx="672" cy="-234" rx="55.3436" ry="18"/>
<text text-anchor="middle" x="672" y="-230.3" font-family="Times,serif" font-size="14.00">ProductType</text>
</g>
<!-- ProductType&#45;&gt;BoardDesignEntry -->
<g id="edge134" class="edge"><title>ProductType&#45;&gt;BoardDesignEntry</title>
<path fill="none" stroke="#67526d" d="M720.995,-219.774C726.383,-218.443 731.798,-217.157 737,-216 810.653,-199.615 895.703,-184.415 954.181,-174.533"/>
<ellipse fill="none" stroke="#67526d" cx="717.03" cy="-220.772" rx="4.00001" ry="4.00001"/>
<polygon fill="#67526d" stroke="#67526d" points="954.195,-174.53 964.803,-177.309 959.126,-173.701 964.056,-172.872 964.056,-172.872 964.056,-172.872 959.126,-173.701 963.31,-168.434 954.195,-174.53 954.195,-174.53"/>
</g>
<!-- TrackerFix -->
<g id="node54" class="node"><title>TrackerFix</title>
<ellipse fill="none" stroke="black" cx="3430" cy="-471" rx="50.0684" ry="18"/>
<text text-anchor="middle" x="3430" y="-467.3" font-family="Times,serif" font-size="14.00">TrackerFix</text>
</g>
<!-- PostingTimestamp -->
<g id="node55" class="node"><title>PostingTimestamp</title>
<ellipse fill="none" stroke="black" cx="1576" cy="-90" rx="77.0154" ry="18"/>
<text text-anchor="middle" x="1576" y="-86.3" font-family="Times,serif" font-size="14.00">PostingTimestamp</text>
</g>
<!-- Role&#45;&gt;BoardDesignEntryUser -->
<g id="edge138" class="edge"><title>Role&#45;&gt;BoardDesignEntryUser</title>
<path fill="none" stroke="#5acde6" d="M1336.48,-147.96C1332.66,-146.509 1328.76,-145.145 1325,-144 1290.36,-133.466 1201.18,-116.372 1135.81,-104.455"/>
<ellipse fill="none" stroke="#5acde6" cx="1340.44" cy="-149.538" rx="4.00001" ry="4.00001"/>
<polygon fill="#5acde6" stroke="#5acde6" points="1135.78,-104.449 1126.74,-98.2345 1130.86,-103.556 1125.94,-102.662 1125.94,-102.662 1125.94,-102.662 1130.86,-103.556 1125.13,-107.09 1135.78,-104.449 1135.78,-104.449"/>
</g>
<!-- Role&#45;&gt;DesignReviewResult -->
<g id="edge140" class="edge"><title>Role&#45;&gt;DesignReviewResult</title>
<path fill="none" stroke="#e2c701" d="M1339.66,-144.235C1324.79,-134.777 1306.06,-122.854 1290.09,-112.691"/>
<ellipse fill="none" stroke="#e2c701" cx="1343.46" cy="-146.659" rx="4.00002" ry="4.00002"/>
<polygon fill="#e2c701" stroke="#e2c701" points="1289.98,-112.621 1283.95,-103.455 1285.76,-109.936 1281.54,-107.252 1281.54,-107.252 1281.54,-107.252 1285.76,-109.936 1279.12,-111.048 1289.98,-112.621 1289.98,-112.621"/>
</g>
<!-- Role&#45;&gt;BoardReviewer -->
<g id="edge136" class="edge"><title>Role&#45;&gt;BoardReviewer</title>
<path fill="none" stroke="#10f701" d="M1330.82,-158.816C1247.54,-153.33 1031.96,-137.272 854,-108 848.177,-107.042 842.128,-105.908 836.106,-104.688"/>
<ellipse fill="none" stroke="#10f701" cx="1334.93" cy="-159.084" rx="4" ry="4"/>
<polygon fill="#10f701" stroke="#10f701" points="835.826,-104.629 826.968,-98.164 830.933,-103.598 826.04,-102.567 826.04,-102.567 826.04,-102.567 830.933,-103.598 825.113,-106.971 835.826,-104.629 835.826,-104.629"/>
</g>
<!-- EcoTask&#45;&gt;EcoComment -->
<g id="edge142" class="edge"><title>EcoTask&#45;&gt;EcoComment</title>
<path fill="none" stroke="#5f3e9d" d="M2251.93,-280.267C2250.24,-274.34 2248.42,-267.981 2246.7,-261.959"/>
<ellipse fill="none" stroke="#5f3e9d" cx="2253.06" cy="-284.209" rx="4.00001" ry="4.00001"/>
<polygon fill="#5f3e9d" stroke="#5f3e9d" points="2246.68,-261.891 2248.26,-251.039 2245.31,-257.083 2243.94,-252.275 2243.94,-252.275 2243.94,-252.275 2245.31,-257.083 2239.61,-253.512 2246.68,-261.891 2246.68,-261.891"/>
</g>
<!-- EcoTask&#45;&gt;EcoDocument -->
<g id="edge144" class="edge"><title>EcoTask&#45;&gt;EcoDocument</title>
<path fill="none" stroke="#77b1ec" d="M2289.84,-287.008C2306.18,-277.478 2326.33,-265.725 2343.34,-255.804"/>
<ellipse fill="none" stroke="#77b1ec" cx="2286.16" cy="-289.155" rx="4.00002" ry="4.00002"/>
<polygon fill="#77b1ec" stroke="#77b1ec" points="2343.78,-255.546 2354.68,-254.394 2348.1,-253.026 2352.42,-250.507 2352.42,-250.507 2352.42,-250.507 2348.1,-253.026 2350.15,-246.62 2343.78,-255.546 2343.78,-255.546"/>
</g>
<!-- Audit&#45;&gt;AuditTeammate -->
<g id="edge146" class="edge"><title>Audit&#45;&gt;AuditTeammate</title>
<path fill="none" stroke="#69aaba" d="M532.89,-139.143C526.77,-131.757 519.894,-123.459 513.597,-115.859"/>
<ellipse fill="none" stroke="#69aaba" cx="535.576" cy="-142.385" rx="4.00002" ry="4.00002"/>
<polygon fill="#69aaba" stroke="#69aaba" points="513.434,-115.662 510.519,-105.091 510.244,-111.812 507.054,-107.962 507.054,-107.962 507.054,-107.962 510.244,-111.812 503.589,-110.833 513.434,-115.662 513.434,-115.662"/>
</g>
<!-- Audit&#45;&gt;DesignCheck -->
<g id="edge148" class="edge"><title>Audit&#45;&gt;DesignCheck</title>
<path fill="none" stroke="#4fe2a9" d="M574.578,-142.029C585.543,-133.206 598.662,-122.651 610.116,-113.435"/>
<ellipse fill="none" stroke="#4fe2a9" cx="571.305" cy="-144.663" rx="4.00002" ry="4.00002"/>
<polygon fill="#4fe2a9" stroke="#4fe2a9" points="610.316,-113.275 620.928,-110.512 614.211,-110.14 618.107,-107.006 618.107,-107.006 618.107,-107.006 614.211,-110.14 615.286,-103.5 610.316,-113.275 610.316,-113.275"/>
</g>
<!-- ReviewStatus -->
<g id="node60" class="node"><title>ReviewStatus</title>
<ellipse fill="none" stroke="black" cx="1662" cy="-234" rx="59.2173" ry="18"/>
<text text-anchor="middle" x="1662" y="-230.3" font-family="Times,serif" font-size="14.00">ReviewStatus</text>
</g>
<!-- ReviewStatus&#45;&gt;DesignReview -->
<g id="edge150" class="edge"><title>ReviewStatus&#45;&gt;DesignReview</title>
<path fill="none" stroke="#3548de" d="M1627.78,-213.839C1610.99,-204.435 1590.75,-193.099 1573.64,-183.519"/>
<ellipse fill="none" stroke="#3548de" cx="1631.39" cy="-215.857" rx="4.00002" ry="4.00002"/>
<polygon fill="#3548de" stroke="#3548de" points="1573.23,-183.287 1566.7,-174.475 1568.86,-180.844 1564.5,-178.401 1564.5,-178.401 1564.5,-178.401 1568.86,-180.844 1562.3,-182.327 1573.23,-183.287 1573.23,-183.287"/>
</g>
<!-- Board&#45;&gt;DesignReviewDocument -->
<g id="edge156" class="edge"><title>Board&#45;&gt;DesignReviewDocument</title>
<path fill="none" stroke="#9a3a70" d="M417.594,-304.206C375.924,-301.2 311.724,-290.127 273,-252 256.593,-235.846 250.087,-210.075 247.542,-190.412"/>
<ellipse fill="none" stroke="#9a3a70" cx="421.621" cy="-304.457" rx="4" ry="4"/>
<polygon fill="#9a3a70" stroke="#9a3a70" points="247.517,-190.165 250.975,-179.759 247.008,-185.191 246.498,-180.217 246.498,-180.217 246.498,-180.217 247.008,-185.191 242.022,-180.675 247.517,-190.165 247.517,-190.165"/>
</g>
<!-- Board&#45;&gt;BoardReviewer -->
<g id="edge154" class="edge"><title>Board&#45;&gt;BoardReviewer</title>
<path fill="none" stroke="#ed03d6" d="M484.237,-286.382C509.989,-268.197 550.463,-239.853 586,-216 641.388,-178.822 706.701,-136.92 745.382,-112.301"/>
<ellipse fill="none" stroke="#ed03d6" cx="480.646" cy="-288.92" rx="4.00002" ry="4.00002"/>
<polygon fill="#ed03d6" stroke="#ed03d6" points="745.714,-112.091 756.567,-110.523 749.933,-109.408 754.152,-106.725 754.152,-106.725 754.152,-106.725 749.933,-109.408 751.738,-102.928 745.714,-112.091 745.714,-112.091"/>
</g>
<!-- Board&#45;&gt;Audit -->
<g id="edge158" class="edge"><title>Board&#45;&gt;Audit</title>
<path fill="none" stroke="#639c3d" d="M452.356,-280.044C449.48,-261.149 448.645,-235.249 460,-216 472.355,-195.055 496.436,-181.567 516.724,-173.442"/>
<ellipse fill="none" stroke="#639c3d" cx="453.046" cy="-283.988" rx="4.00001" ry="4.00001"/>
<ellipse fill="#639c3d" stroke="#639c3d" cx="520.54" cy="-172" rx="4.00001" ry="4.00001"/>
</g>
<!-- Board&#45;&gt;Design -->
<g id="edge152" class="edge"><title>Board&#45;&gt;Design</title>
<path fill="none" stroke="#adad56" d="M494.697,-295.951C507.953,-292.988 523.079,-289.958 537,-288 771.674,-254.986 832.71,-270.137 1069,-252 1121.69,-247.956 1182.21,-242.665 1222.33,-239.068"/>
<ellipse fill="none" stroke="#adad56" cx="490.612" cy="-296.885" rx="4.00001" ry="4.00001"/>
<polygon fill="#adad56" stroke="#adad56" points="1222.36,-239.065 1232.72,-242.651 1227.34,-238.617 1232.32,-238.169 1232.32,-238.169 1232.32,-238.169 1227.34,-238.617 1231.92,-233.687 1222.36,-239.065 1222.36,-239.065"/>
</g>
<!-- Design&#45;&gt;FtpNotification -->
<g id="edge178" class="edge"><title>Design&#45;&gt;FtpNotification</title>
<path fill="none" stroke="#a2e154" d="M1224.49,-228.768C1184.42,-224.918 1122.69,-219.341 1069,-216 655.712,-190.282 548.472,-234.595 138,-180 131.332,-179.113 124.382,-177.904 117.527,-176.537"/>
<ellipse fill="none" stroke="#a2e154" cx="1228.72" cy="-229.177" rx="4" ry="4"/>
<ellipse fill="#a2e154" stroke="#a2e154" cx="113.462" cy="-175.688" rx="4.00001" ry="4.00001"/>
</g>
<!-- Design&#45;&gt;OiInstruction -->
<g id="edge170" class="edge"><title>Design&#45;&gt;OiInstruction</title>
<path fill="none" stroke="#9129bd" d="M1308.3,-226.611C1331.65,-223.145 1361.41,-218.975 1388,-216 1595.3,-192.805 1841.72,-175.025 1957.17,-167.267"/>
<ellipse fill="none" stroke="#9129bd" cx="1304.28" cy="-227.212" rx="4.00001" ry="4.00001"/>
<polygon fill="#9129bd" stroke="#9129bd" points="1957.28,-167.26 1967.56,-171.083 1962.27,-166.926 1967.26,-166.593 1967.26,-166.593 1967.26,-166.593 1962.27,-166.926 1966.96,-162.103 1957.28,-167.26 1957.28,-167.26"/>
</g>
<!-- Design&#45;&gt;DesignChange -->
<g id="edge160" class="edge"><title>Design&#45;&gt;DesignChange</title>
<path fill="none" stroke="#862bad" d="M1308.01,-226.227C1331.38,-222.62 1361.26,-218.437 1388,-216 1620.2,-194.836 2340.14,-172.049 2570.99,-165.117"/>
<ellipse fill="none" stroke="#862bad" cx="1303.98" cy="-226.857" rx="4.00001" ry="4.00001"/>
<polygon fill="#862bad" stroke="#862bad" points="2571.28,-165.108 2581.41,-169.307 2576.28,-164.958 2581.28,-164.809 2581.28,-164.809 2581.28,-164.809 2576.28,-164.958 2581.14,-160.311 2571.28,-165.108 2571.28,-165.108"/>
</g>
<!-- Design&#45;&gt;DesignReviewDocument -->
<g id="edge162" class="edge"><title>Design&#45;&gt;DesignReviewDocument</title>
<path fill="none" stroke="#3a074e" d="M1224.37,-228.901C1184.29,-225.153 1122.62,-219.65 1069,-216 751.555,-194.387 670.487,-212.783 354,-180 344.612,-179.028 334.796,-177.791 325.072,-176.431"/>
<ellipse fill="none" stroke="#3a074e" cx="1228.35" cy="-229.276" rx="4" ry="4"/>
<polygon fill="#3a074e" stroke="#3a074e" points="324.892,-176.405 315.639,-170.52 319.944,-175.689 314.995,-174.974 314.995,-174.974 314.995,-174.974 319.944,-175.689 314.351,-179.427 324.892,-176.405 324.892,-176.405"/>
</g>
<!-- Design&#45;&gt;PartNum -->
<g id="edge172" class="edge"><title>Design&#45;&gt;PartNum</title>
<path fill="none" stroke="#8ae141" d="M1239.71,-214.343C1209.3,-194.324 1158.06,-162.87 1110,-144 1045.38,-118.628 1024.83,-126.803 958,-108 954.653,-107.058 951.2,-106.038 947.739,-104.981"/>
<ellipse fill="none" stroke="#8ae141" cx="1243.28" cy="-216.712" rx="4.00002" ry="4.00002"/>
<polygon fill="#8ae141" stroke="#8ae141" points="947.59,-104.935 939.396,-97.6474 942.82,-103.438 938.049,-101.941 938.049,-101.941 938.049,-101.941 942.82,-103.438 936.702,-106.235 947.59,-104.935 947.59,-104.935"/>
</g>
<!-- Design&#45;&gt;BoardDesignEntry -->
<g id="edge176" class="edge"><title>Design&#45;&gt;BoardDesignEntry</title>
<path fill="none" stroke="#ce1725" d="M1231,-220.481C1226.31,-218.93 1221.55,-217.399 1217,-216 1172.1,-202.184 1120.8,-188.108 1082.52,-177.937"/>
<ellipse fill="none" stroke="#ce1725" cx="1235.01" cy="-221.821" rx="4.00001" ry="4.00001"/>
<ellipse fill="#ce1725" stroke="#ce1725" cx="1078.42" cy="-176.852" rx="4.00001" ry="4.00001"/>
</g>
<!-- Design&#45;&gt;DesignUpdate -->
<g id="edge166" class="edge"><title>Design&#45;&gt;DesignUpdate</title>
<path fill="none" stroke="#2a4941" d="M1309.03,-227.286C1339.33,-220.925 1378.82,-207.622 1402,-180 1416.36,-162.882 1420.34,-137.434 1421.03,-118.129"/>
<ellipse fill="none" stroke="#2a4941" cx="1305.07" cy="-228.062" rx="4.00001" ry="4.00001"/>
<polygon fill="#2a4941" stroke="#2a4941" points="1421.03,-118.127 1425.62,-108.168 1421.07,-113.128 1421.12,-108.128 1421.12,-108.128 1421.12,-108.128 1421.07,-113.128 1416.62,-108.088 1421.03,-118.127 1421.03,-118.127"/>
</g>
<!-- Design&#45;&gt;Audit -->
<g id="edge174" class="edge"><title>Design&#45;&gt;Audit</title>
<path fill="none" stroke="#f92b13" d="M1224.16,-228.811C1095.01,-216.185 710.88,-178.631 588.736,-166.689"/>
<ellipse fill="none" stroke="#f92b13" cx="1228.48" cy="-229.235" rx="4" ry="4"/>
<ellipse fill="#f92b13" stroke="#f92b13" cx="584.718" cy="-166.297" rx="4" ry="4"/>
</g>
<!-- Design&#45;&gt;DesignReview -->
<g id="edge164" class="edge"><title>Design&#45;&gt;DesignReview</title>
<path fill="none" stroke="#3b02f4" d="M1305.59,-222.996C1351.84,-211.004 1429.67,-190.826 1482.16,-177.218"/>
<ellipse fill="none" stroke="#3b02f4" cx="1301.58" cy="-224.034" rx="4.00001" ry="4.00001"/>
<polygon fill="#3b02f4" stroke="#3b02f4" points="1482.29,-177.183 1493.1,-179.029 1487.13,-175.928 1491.97,-174.673 1491.97,-174.673 1491.97,-174.673 1487.13,-175.928 1490.84,-170.317 1482.29,-177.183 1482.29,-177.183"/>
</g>
<!-- Design&#45;&gt;IpdPost -->
<g id="edge168" class="edge"><title>Design&#45;&gt;IpdPost</title>
<path fill="none" stroke="#603f99" d="M1309.3,-227.192C1373.88,-218.151 1500.85,-199.695 1608,-180 1620.11,-177.774 1633.2,-175.105 1645.21,-172.549"/>
<ellipse fill="none" stroke="#603f99" cx="1304.95" cy="-227.799" rx="4.00001" ry="4.00001"/>
<polygon fill="#603f99" stroke="#603f99" points="1645.22,-172.546 1655.94,-174.84 1650.11,-171.494 1655,-170.441 1655,-170.441 1655,-170.441 1650.11,-171.494 1654.05,-166.042 1645.22,-172.546 1645.22,-172.546"/>
</g>
<!-- DesignReview&#45;&gt;DesignReviewComment -->
<g id="edge180" class="edge"><title>DesignReview&#45;&gt;DesignReviewComment</title>
<path fill="none" stroke="#79d31d" d="M1586.16,-146.168C1622.42,-135.227 1671.91,-120.296 1710.25,-108.726"/>
<ellipse fill="none" stroke="#79d31d" cx="1582.31" cy="-147.33" rx="4.00001" ry="4.00001"/>
<polygon fill="#79d31d" stroke="#79d31d" points="1710.67,-108.598 1721.55,-110.018 1715.46,-107.154 1720.25,-105.71 1720.25,-105.71 1720.25,-105.71 1715.46,-107.154 1718.95,-101.401 1710.67,-108.598 1710.67,-108.598"/>
</g>
<!-- DesignReview&#45;&gt;DesignReviewResult -->
<g id="edge184" class="edge"><title>DesignReview&#45;&gt;DesignReviewResult</title>
<path fill="none" stroke="#a4e86b" d="M1483.72,-147.727C1436.86,-136.054 1368.59,-119.047 1319.03,-106.701"/>
<ellipse fill="none" stroke="#a4e86b" cx="1487.66" cy="-148.709" rx="4.00001" ry="4.00001"/>
<polygon fill="#a4e86b" stroke="#a4e86b" points="1318.77,-106.636 1310.15,-99.8521 1313.92,-105.427 1309.06,-104.219 1309.06,-104.219 1309.06,-104.219 1313.92,-105.427 1307.98,-108.585 1318.77,-106.636 1318.77,-106.636"/>
</g>
<!-- DesignReview&#45;&gt;DesignUpdate -->
<g id="edge186" class="edge"><title>DesignReview&#45;&gt;DesignUpdate</title>
<path fill="none" stroke="#485f5c" d="M1503.95,-141.228C1488.58,-132.028 1470.29,-121.086 1454.71,-111.766"/>
<ellipse fill="none" stroke="#485f5c" cx="1507.6" cy="-143.411" rx="4.00002" ry="4.00002"/>
<polygon fill="#485f5c" stroke="#485f5c" points="1454.47,-111.626 1448.2,-102.63 1450.18,-109.059 1445.89,-106.492 1445.89,-106.492 1445.89,-106.492 1450.18,-109.059 1443.58,-110.353 1454.47,-111.626 1454.47,-111.626"/>
</g>
<!-- DesignReview&#45;&gt;PostingTimestamp -->
<g id="edge182" class="edge"><title>DesignReview&#45;&gt;PostingTimestamp</title>
<path fill="none" stroke="#d52e47" d="M1550.47,-136.827C1553.98,-130.515 1557.79,-123.681 1561.37,-117.266"/>
<ellipse fill="none" stroke="#d52e47" cx="1548.39" cy="-140.561" rx="4.00002" ry="4.00002"/>
<polygon fill="#d52e47" stroke="#d52e47" points="1561.51,-117.011 1570.31,-110.465 1563.94,-112.643 1566.38,-108.275 1566.38,-108.275 1566.38,-108.275 1563.94,-112.643 1562.44,-106.085 1561.51,-117.011 1561.51,-117.011"/>
</g>
</g>
</svg>
